G04*
G04 #@! TF.GenerationSoftware,Altium Limited,Altium Designer,19.0.14 (431)*
G04*
G04 Layer_Physical_Order=4*
G04 Layer_Color=16711680*
%FSLAX25Y25*%
%MOIN*%
G70*
G01*
G75*
%ADD13C,0.00500*%
%ADD14C,0.00050*%
%ADD28R,0.02441X0.02598*%
%ADD29R,0.01575X0.01181*%
%ADD30R,0.02598X0.02441*%
%ADD55C,0.00600*%
%ADD56C,0.01000*%
%ADD57C,0.01500*%
%ADD58C,0.00700*%
%ADD59C,0.00701*%
%ADD61C,0.05315*%
%ADD62R,0.05315X0.05315*%
%ADD63R,0.04331X0.04331*%
%ADD64C,0.04331*%
%ADD65C,0.05118*%
%ADD66C,0.01600*%
%ADD67C,0.01400*%
%ADD82R,0.01378X0.02165*%
%ADD83R,0.07874X0.04567*%
%ADD84R,0.07874X0.03937*%
%ADD85R,0.03543X0.07874*%
%ADD86R,0.03543X0.01772*%
%ADD87R,0.02165X0.02165*%
%ADD88R,0.00984X0.00787*%
%ADD89R,0.00787X0.00984*%
%ADD90R,0.01181X0.01102*%
%ADD91R,0.02559X0.03150*%
%ADD92R,0.04134X0.03150*%
%ADD93R,0.02362X0.04134*%
%ADD94R,0.01575X0.02756*%
%ADD95R,0.03150X0.03150*%
%ADD96R,0.01575X0.00984*%
%ADD97R,0.01181X0.01575*%
%ADD98R,0.03150X0.03150*%
%ADD99R,0.02165X0.02165*%
G36*
X5720Y48332D02*
X9495Y47734D01*
X13211Y46842D01*
X16845Y45662D01*
X20376Y44199D01*
X23781Y42464D01*
X26575Y40752D01*
Y35212D01*
X25952Y34879D01*
X24976Y34079D01*
X24176Y33103D01*
X23581Y31991D01*
X23215Y30783D01*
X23091Y29528D01*
X23215Y28272D01*
X23581Y27064D01*
X24176Y25952D01*
X24976Y24976D01*
X25952Y24176D01*
X26575Y23843D01*
X26575Y-40752D01*
X25020Y-41705D01*
X24409Y-41363D01*
Y-40053D01*
X24499Y-39370D01*
X24409Y-38687D01*
Y-33071D01*
X21391D01*
Y-30034D01*
X21585Y-29566D01*
X21693Y-28740D01*
X21585Y-27915D01*
X21266Y-27145D01*
X20759Y-26485D01*
X20099Y-25978D01*
X19329Y-25659D01*
X18504Y-25551D01*
X17678Y-25659D01*
X17126Y-25888D01*
X16574Y-25659D01*
X15748Y-25551D01*
X14922Y-25659D01*
X14483Y-25841D01*
X14432Y-25828D01*
X13859Y-25394D01*
Y-20670D01*
X13929Y-20622D01*
X14217Y-20192D01*
X14318Y-19685D01*
X14217Y-19178D01*
X13929Y-18748D01*
X13499Y-18461D01*
X12992Y-18360D01*
X12485Y-18461D01*
X12055Y-18748D01*
X12008Y-18818D01*
X10630D01*
X10298Y-18884D01*
X10017Y-19072D01*
X7007Y-22082D01*
X6307Y-21792D01*
Y-19087D01*
X6076D01*
X5840Y-18387D01*
X5949Y-18224D01*
X6050Y-17717D01*
X5949Y-17209D01*
X5662Y-16779D01*
X5232Y-16492D01*
X4724Y-16391D01*
X4217Y-16492D01*
X3787Y-16779D01*
X3500Y-17209D01*
X3399Y-17717D01*
X3500Y-18224D01*
X3609Y-18387D01*
X3373Y-19087D01*
X3142D01*
X3142Y-22441D01*
X3142Y-22890D01*
X2647Y-23385D01*
X-5012D01*
Y-22433D01*
X-7587D01*
Y-23405D01*
X-9733D01*
X-10228Y-22910D01*
X-10228Y-22500D01*
X-10228Y-21989D01*
Y-19146D01*
X-10944D01*
Y-18020D01*
X-10524D01*
X-10524Y-15839D01*
X-10524Y-15139D01*
Y-13476D01*
X-10944D01*
Y-9324D01*
X-10244Y-9086D01*
X-10169Y-9184D01*
X-9612Y-9612D01*
X-8963Y-9880D01*
X-8268Y-9972D01*
X-7572Y-9880D01*
X-6923Y-9612D01*
X-6367Y-9184D01*
X-5940Y-8628D01*
X-5671Y-7979D01*
X-5579Y-7283D01*
X-5671Y-6588D01*
X-5940Y-5939D01*
X-6367Y-5382D01*
X-6923Y-4955D01*
X-7572Y-4687D01*
X-8268Y-4595D01*
X-8963Y-4687D01*
X-9612Y-4955D01*
X-10169Y-5382D01*
X-10244Y-5481D01*
X-10944Y-5243D01*
Y-5020D01*
X-10944Y-5020D01*
X-11010Y-4688D01*
X-11198Y-4407D01*
X-11198Y-4407D01*
X-13560Y-2044D01*
X-13841Y-1856D01*
X-14173Y-1790D01*
X-24606D01*
X-24653Y-1720D01*
X-25083Y-1433D01*
X-25591Y-1332D01*
X-26098Y-1433D01*
X-26528Y-1720D01*
X-26815Y-2150D01*
X-26916Y-2657D01*
X-26815Y-3165D01*
X-26528Y-3595D01*
X-26098Y-3882D01*
X-25591Y-3983D01*
X-25083Y-3882D01*
X-24653Y-3595D01*
X-24606Y-3525D01*
X-14532D01*
X-12678Y-5379D01*
Y-13476D01*
X-13098D01*
X-13098Y-15657D01*
X-13098Y-16357D01*
Y-18020D01*
X-12678D01*
Y-19146D01*
X-13394D01*
X-13394Y-22500D01*
X-13394Y-23011D01*
Y-25854D01*
X-10228D01*
Y-25138D01*
X-7587D01*
Y-26189D01*
X-5012D01*
Y-25119D01*
X3048D01*
X3122Y-25819D01*
X2696Y-26311D01*
X2469Y-26485D01*
X1962Y-27145D01*
X1644Y-27915D01*
X1535Y-28740D01*
X1644Y-29566D01*
X1962Y-30335D01*
X2469Y-30996D01*
X3130Y-31502D01*
X3598Y-31696D01*
X3806Y-31905D01*
Y-32839D01*
X3155Y-33042D01*
X2507Y-32773D01*
X1811Y-32682D01*
X1115Y-32773D01*
X467Y-33042D01*
X429Y-33071D01*
X-394D01*
Y-33865D01*
X-517Y-34026D01*
X-786Y-34674D01*
X-877Y-35370D01*
X-786Y-36066D01*
X-517Y-36714D01*
X-394Y-36875D01*
Y-41865D01*
X-517Y-42026D01*
X-786Y-42674D01*
X-877Y-43370D01*
X-786Y-44066D01*
X-517Y-44714D01*
X-394Y-44875D01*
Y-45669D01*
X429D01*
X467Y-45698D01*
X1115Y-45967D01*
X1811Y-46058D01*
X2507Y-45967D01*
X3155Y-45698D01*
X3193Y-45669D01*
X6265D01*
X6273Y-45689D01*
X6780Y-46350D01*
X7441Y-46857D01*
X8210Y-47175D01*
X8396Y-47200D01*
X8405Y-47907D01*
X5720Y-48332D01*
X1911Y-48632D01*
X-1911D01*
X-5720Y-48332D01*
X-9495Y-47734D01*
X-13211Y-46842D01*
X-16845Y-45662D01*
X-20376Y-44199D01*
X-23781Y-42464D01*
X-27040Y-40467D01*
X-30131Y-38221D01*
X-33037Y-35739D01*
X-33103Y-35673D01*
X-32681Y-35105D01*
X-31991Y-35474D01*
X-30783Y-35840D01*
X-29528Y-35964D01*
X-28272Y-35840D01*
X-27064Y-35474D01*
X-25952Y-34879D01*
X-24976Y-34079D01*
X-24176Y-33103D01*
X-23581Y-31991D01*
X-23215Y-30783D01*
X-23091Y-29528D01*
X-23215Y-28272D01*
X-23581Y-27064D01*
X-24176Y-25952D01*
X-24976Y-24976D01*
X-25952Y-24176D01*
X-27064Y-23581D01*
X-28272Y-23215D01*
X-29528Y-23091D01*
X-30783Y-23215D01*
X-31991Y-23581D01*
X-33103Y-24176D01*
X-34079Y-24976D01*
X-34135Y-25044D01*
X-34835Y-24794D01*
Y-22433D01*
X-35511D01*
Y-21159D01*
X-34811Y-21073D01*
X-34635Y-21249D01*
X-34252Y-21407D01*
X-34252Y-21407D01*
X-28318D01*
X-27935Y-21249D01*
X-27935Y-21249D01*
X-27570Y-20884D01*
X-27411Y-20501D01*
X-27412Y-20501D01*
Y-16287D01*
X-27479Y-16126D01*
Y-13008D01*
X-27412Y-12846D01*
Y-8662D01*
X-27411Y-8661D01*
X-27570Y-8279D01*
X-27570Y-8279D01*
X-27964Y-7885D01*
X-28346Y-7727D01*
X-28346Y-7727D01*
X-31980D01*
X-32284Y-7852D01*
X-35165D01*
X-35165Y-7852D01*
X-35166Y-7853D01*
X-35548Y-8011D01*
X-35611Y-8074D01*
X-35611Y-8074D01*
X-35655Y-8181D01*
X-37606D01*
Y-11346D01*
X-37284D01*
Y-12984D01*
X-38000D01*
Y-16150D01*
X-37284D01*
Y-17571D01*
X-38177D01*
Y-21012D01*
X-37245D01*
Y-22433D01*
X-38000D01*
Y-25598D01*
X-35468D01*
X-35065Y-26298D01*
X-35474Y-27064D01*
X-35840Y-28272D01*
X-35964Y-29528D01*
X-35840Y-30783D01*
X-35474Y-31991D01*
X-35105Y-32681D01*
X-35673Y-33103D01*
X-35739Y-33037D01*
X-38221Y-30131D01*
X-40467Y-27040D01*
X-42464Y-23781D01*
X-44199Y-20376D01*
X-45662Y-16845D01*
X-45895Y-16126D01*
D01*
X-45989Y-15839D01*
X-45992Y-15828D01*
D01*
X-46016Y-15756D01*
X-46114Y-15453D01*
D01*
X-46132Y-15398D01*
X-46225Y-15111D01*
D01*
X-46248Y-15040D01*
X-46365Y-14681D01*
D01*
X-46418Y-14515D01*
X-46530Y-14173D01*
D01*
X-46646Y-13817D01*
X-46842Y-13211D01*
X-47734Y-9495D01*
X-47799Y-9086D01*
D01*
X-47866Y-8661D01*
X-47872Y-8628D01*
D01*
X-47899Y-8457D01*
X-47909Y-8394D01*
D01*
X-47927Y-8279D01*
X-47929Y-8268D01*
D01*
X-47995Y-7852D01*
D01*
D01*
X-48031Y-7620D01*
X-48182Y-6671D01*
X-48031Y-6495D01*
Y-6337D01*
X-47667Y-5972D01*
X-44736D01*
Y-2374D01*
X-45043D01*
X-45545Y-1674D01*
X-45525Y-1575D01*
X-45623Y-1082D01*
X-45626Y-1068D01*
X-45242Y-382D01*
X-44335D01*
Y55D01*
X-43701Y643D01*
X-43194Y744D01*
X-42764Y1031D01*
X-42476Y1461D01*
X-42405Y1818D01*
X-41973Y2042D01*
X-41691Y2094D01*
X-39575Y-23D01*
Y-3039D01*
X-35591D01*
X-35520Y-3210D01*
X-35138Y-3368D01*
X-31980D01*
X-31946Y-3354D01*
X-31911Y-3364D01*
X-31436Y-3302D01*
X-31285Y-3215D01*
X-31285Y-3215D01*
X-31123Y-3148D01*
X-31123Y-3148D01*
X-31113Y-3139D01*
X-31102Y-3110D01*
X-31077Y-3096D01*
X-30955Y-2756D01*
X-30955Y-2756D01*
Y79D01*
X-30418Y616D01*
X-30377Y714D01*
X-30302Y788D01*
X-30120Y1218D01*
X-30119Y1328D01*
X-30077Y1429D01*
X-30077Y1429D01*
Y4329D01*
X-27020D01*
X-26961Y4353D01*
X-26898Y4343D01*
X-26776Y4430D01*
X-26637Y4487D01*
X-26613Y4546D01*
X-26561Y4583D01*
X-26313Y4981D01*
X-26288Y5129D01*
X-26230Y5267D01*
Y6152D01*
X-23228D01*
X-23228Y6152D01*
X-22846Y6310D01*
X-22846Y6310D01*
X-22828Y6328D01*
X-22154Y6390D01*
X-21851Y6390D01*
X-14702D01*
X-12424Y4112D01*
X-12143Y3924D01*
X-11811Y3858D01*
X11811D01*
X12143Y3924D01*
X12424Y4112D01*
X14702Y6390D01*
X22154D01*
Y11116D01*
X22154Y11327D01*
X22276Y11976D01*
X22394Y12055D01*
X22681Y12485D01*
X22782Y12992D01*
X22735Y13229D01*
X23039Y13929D01*
X23039D01*
X23039Y17284D01*
X23039Y17795D01*
Y20638D01*
X22323D01*
Y21350D01*
X23531D01*
Y25500D01*
X19382D01*
Y21350D01*
X20590D01*
Y20638D01*
X19874D01*
X19874Y17283D01*
X19874Y16772D01*
Y13929D01*
X19874D01*
X20178Y13229D01*
X20131Y12992D01*
X20232Y12485D01*
X20519Y12055D01*
X20561Y12027D01*
X20349Y11327D01*
X16856D01*
X16643Y12027D01*
X16685Y12055D01*
X16973Y12485D01*
X17074Y12992D01*
X16979Y13465D01*
X16977Y13507D01*
X17331Y14165D01*
X17331D01*
X17331Y17520D01*
X17331Y18031D01*
Y20874D01*
X17823Y21350D01*
X17823D01*
Y25500D01*
X13673D01*
Y21350D01*
X13673D01*
X14165Y20874D01*
X14165Y17520D01*
X14165Y17009D01*
Y14457D01*
X13465Y14167D01*
X13043Y14589D01*
X12762Y14777D01*
X12430Y14843D01*
X11526D01*
X11032Y15338D01*
X11032Y15748D01*
X11032Y16259D01*
Y18376D01*
X11634Y18970D01*
X11732Y18989D01*
X12141Y19071D01*
X12571Y19358D01*
X12858Y19788D01*
X12959Y20295D01*
X12858Y20802D01*
X12802Y20887D01*
X12705Y21547D01*
X12705Y21547D01*
X12705Y21547D01*
Y24122D01*
X10524D01*
Y21547D01*
X10524D01*
X10458Y20875D01*
X10409Y20802D01*
X10308Y20295D01*
X10406Y19802D01*
X10409Y19788D01*
X10025Y19102D01*
X7866D01*
Y18539D01*
X6706D01*
X6307Y19102D01*
X5995Y19802D01*
X6050Y20079D01*
X5949Y20586D01*
X5662Y21016D01*
X5356Y21220D01*
X5503Y21863D01*
X5522Y21905D01*
X6019Y22004D01*
X6449Y22291D01*
X6736Y22721D01*
X6837Y23228D01*
X6736Y23736D01*
X6449Y24166D01*
X6019Y24453D01*
X5512Y24554D01*
X5005Y24453D01*
X4575Y24166D01*
X4287Y23736D01*
X4186Y23228D01*
X4287Y22721D01*
X4575Y22291D01*
X4880Y22087D01*
X4733Y21444D01*
X4714Y21402D01*
X4217Y21303D01*
X3787Y21016D01*
X3500Y20586D01*
X3399Y20079D01*
X3454Y19802D01*
X3142Y19102D01*
X3142D01*
Y18196D01*
X2442Y17781D01*
X2272Y17873D01*
Y22154D01*
X-2272D01*
Y18115D01*
X-2921Y17697D01*
X-2972Y17703D01*
X-3127Y17936D01*
X-3729Y18538D01*
X-3462Y19185D01*
X-3437D01*
Y23335D01*
X-4251D01*
Y28871D01*
X-4317Y29203D01*
X-4505Y29484D01*
X-5014Y29992D01*
Y30769D01*
X-4977Y30955D01*
Y31095D01*
X-4126D01*
Y34260D01*
X-7291D01*
Y34260D01*
X-7669D01*
Y34260D01*
X-10835D01*
Y33544D01*
X-11780D01*
X-12111Y33478D01*
X-12393Y33290D01*
X-14080Y31602D01*
X-16051D01*
Y26469D01*
X-15526D01*
X-15107Y25769D01*
X-15114Y25756D01*
X-17134Y25756D01*
X-17175Y26439D01*
Y26469D01*
X-17334Y26851D01*
X-17717Y27010D01*
X-19250D01*
Y31012D01*
X-19409Y31394D01*
X-19409Y31394D01*
X-24136Y36122D01*
X-24187Y36143D01*
X-24218Y36189D01*
X-24373Y36220D01*
X-24519Y36280D01*
X-24570Y36259D01*
X-24624Y36270D01*
X-24803Y36234D01*
X-25099Y36293D01*
X-25350Y36461D01*
X-25518Y36712D01*
X-25577Y37008D01*
X-25541Y37187D01*
X-25552Y37241D01*
X-25531Y37292D01*
X-25483Y37703D01*
X-25113Y37995D01*
X-25047Y38039D01*
X-24902Y38256D01*
X-24231Y38927D01*
X-23531Y38849D01*
Y37689D01*
X-20169D01*
Y42823D01*
X-21578D01*
X-21741Y43503D01*
X-20376Y44199D01*
X-16845Y45662D01*
X-13211Y46842D01*
X-9495Y47734D01*
X-5720Y48332D01*
X-1911Y48632D01*
X1911D01*
X5720Y48332D01*
D02*
G37*
G36*
X-27129Y38349D02*
X-26921Y38039D01*
X-26612Y37832D01*
X-26072Y37292D01*
X-26129Y37008D01*
X-26028Y36501D01*
X-25740Y36070D01*
X-25310Y35783D01*
X-24803Y35682D01*
X-24519Y35739D01*
X-19791Y31012D01*
Y26469D01*
X-17717D01*
Y22835D01*
X-18110Y22441D01*
X-21508D01*
Y22508D01*
X-24949D01*
Y22441D01*
X-25591D01*
X-26933Y21098D01*
X-27532D01*
X-27839Y21303D01*
X-28346Y21404D01*
X-28854Y21303D01*
X-29284Y21016D01*
X-29571Y20586D01*
X-29672Y20079D01*
X-29571Y19571D01*
X-29284Y19141D01*
X-28854Y18854D01*
X-28346Y18753D01*
X-28059Y18810D01*
X-27559Y18486D01*
Y18073D01*
X-27707Y17717D01*
X-27707Y17717D01*
Y14722D01*
X-27683Y14666D01*
X-27694Y14607D01*
X-27607Y14481D01*
X-27559Y14366D01*
Y12728D01*
X-28423Y11864D01*
X-28699Y11450D01*
X-28796Y10963D01*
Y10736D01*
X-31405D01*
Y9055D01*
X-34761D01*
X-34914Y9086D01*
X-40534D01*
X-40687Y9055D01*
X-47419D01*
X-47644Y9318D01*
X-47720Y9555D01*
X-46842Y13211D01*
X-45662Y16845D01*
X-44199Y20376D01*
X-42464Y23781D01*
X-40467Y27039D01*
X-38221Y30131D01*
X-35739Y33037D01*
X-34855Y33921D01*
X-34484Y33585D01*
X-34879Y33103D01*
X-35474Y31991D01*
X-35840Y30783D01*
X-35964Y29528D01*
X-35840Y28272D01*
X-35474Y27064D01*
X-35415Y26954D01*
X-35797Y26608D01*
X-36107Y26815D01*
X-36614Y26916D01*
X-37121Y26815D01*
X-37551Y26528D01*
X-37839Y26098D01*
X-37940Y25591D01*
X-37839Y25083D01*
X-37551Y24653D01*
X-37121Y24366D01*
X-36614Y24265D01*
X-36107Y24366D01*
X-35677Y24653D01*
X-35390Y25083D01*
X-35289Y25591D01*
X-34890Y25909D01*
X-34842Y25906D01*
X-34079Y24976D01*
X-33103Y24176D01*
X-31991Y23581D01*
X-30783Y23215D01*
X-29528Y23091D01*
X-28272Y23215D01*
X-27064Y23581D01*
X-25952Y24176D01*
X-24976Y24976D01*
X-24176Y25952D01*
X-23581Y27064D01*
X-23215Y28272D01*
X-23091Y29528D01*
X-23215Y30783D01*
X-23581Y31991D01*
X-24176Y33103D01*
X-24976Y34079D01*
X-25952Y34879D01*
X-27064Y35474D01*
X-28272Y35840D01*
X-29528Y35964D01*
X-30783Y35840D01*
X-31991Y35474D01*
X-33103Y34879D01*
X-33585Y34484D01*
X-33921Y34855D01*
X-33037Y35739D01*
X-30131Y38221D01*
X-28318Y39538D01*
X-27129Y38349D01*
D02*
G37*
G36*
X-16418Y21993D02*
Y20874D01*
X-17134D01*
Y17709D01*
X-13969D01*
Y17968D01*
X-5611D01*
X-4607Y16964D01*
Y16051D01*
X-4831D01*
Y13476D01*
X-4410D01*
Y8465D01*
X-4481Y8418D01*
X-4768Y7988D01*
X-4869Y7480D01*
X-4768Y6973D01*
X-4481Y6543D01*
X-4103Y6291D01*
X-4098Y6240D01*
X-4529Y5591D01*
X-10874D01*
X-11223Y6255D01*
X-11198Y6327D01*
X-10874Y6543D01*
X-10587Y6973D01*
X-10486Y7480D01*
X-10587Y7988D01*
X-10791Y8294D01*
Y12846D01*
X-10760D01*
Y16287D01*
X-14358D01*
Y12846D01*
X-12831D01*
Y11841D01*
X-13280Y11327D01*
X-21170D01*
X-21460Y12027D01*
X-20877Y12609D01*
X-20719Y12992D01*
X-20719Y12992D01*
Y17717D01*
X-20719Y17717D01*
X-20877Y18099D01*
X-20877Y18099D01*
X-21271Y18493D01*
X-21654Y18651D01*
X-21654Y18651D01*
X-26380D01*
X-26772Y18651D01*
X-27176Y18868D01*
X-27231Y18891D01*
X-27264Y18940D01*
X-27764Y19264D01*
X-27965Y19301D01*
X-28165Y19341D01*
X-28346Y19305D01*
X-28642Y19364D01*
X-28894Y19532D01*
X-29061Y19783D01*
X-29120Y20079D01*
X-29061Y20375D01*
X-28894Y20626D01*
X-28642Y20794D01*
X-28346Y20852D01*
X-28050Y20794D01*
X-27833Y20648D01*
X-27678Y20617D01*
X-27532Y20557D01*
X-26933D01*
X-26933Y20557D01*
X-26550Y20716D01*
X-26550Y20716D01*
X-25366Y21900D01*
X-24949D01*
X-24787Y21967D01*
X-21669D01*
X-21508Y21900D01*
X-18110D01*
X-18110Y21900D01*
X-17728Y22058D01*
X-17728Y22058D01*
X-17647Y22139D01*
X-17278Y22464D01*
X-17118Y22498D01*
X-16418Y21993D01*
D02*
G37*
G36*
X-10835Y31536D02*
Y31095D01*
X-7669D01*
Y31095D01*
X-7374D01*
X-6747Y30718D01*
Y29634D01*
X-6681Y29302D01*
X-6493Y29021D01*
X-5985Y28512D01*
Y23335D01*
X-7587D01*
Y19702D01*
X-9736D01*
Y23335D01*
X-11972D01*
Y24777D01*
X-11767Y25083D01*
X-11667Y25591D01*
X-11767Y26098D01*
X-12055Y26528D01*
X-12485Y26815D01*
X-12689Y26856D01*
Y29783D01*
X-12672Y29866D01*
Y30559D01*
X-11535Y31697D01*
X-10835Y31536D01*
D02*
G37*
G36*
X-21260Y17717D02*
Y12992D01*
X-22835Y11417D01*
Y7087D01*
X-23228Y6693D01*
X-26272D01*
Y9363D01*
X-26247Y9486D01*
Y10435D01*
X-25317Y11365D01*
X-25041Y11778D01*
X-24944Y12266D01*
Y12295D01*
X-24894D01*
Y14279D01*
X-25509D01*
X-25731Y14427D01*
X-26219Y14525D01*
X-26665Y14436D01*
X-26729Y14442D01*
X-27165Y14722D01*
Y17717D01*
X-26772Y18110D01*
X-21654D01*
X-21260Y17717D01*
D02*
G37*
G36*
X3142Y13892D02*
Y12394D01*
X5977D01*
X6465Y12098D01*
X6614Y11821D01*
Y8858D01*
X6543Y8811D01*
X6256Y8381D01*
X6155Y7874D01*
X6256Y7367D01*
X6543Y6937D01*
X6973Y6650D01*
X7480Y6549D01*
X7988Y6650D01*
X8418Y6937D01*
X8705Y7367D01*
X8806Y7874D01*
X8705Y8381D01*
X8418Y8811D01*
X8347Y8858D01*
Y11649D01*
X9092Y12394D01*
X11032D01*
Y13110D01*
X12071D01*
X13263Y11918D01*
Y10477D01*
X13280Y10393D01*
Y7418D01*
X11452Y5591D01*
X-2558D01*
X-2989Y6240D01*
X-2983Y6291D01*
X-2606Y6543D01*
X-2319Y6973D01*
X-2218Y7480D01*
X-2319Y7988D01*
X-2606Y8418D01*
X-2676Y8465D01*
Y12747D01*
X-2272Y13280D01*
X-2031Y13280D01*
X2272D01*
Y13641D01*
X2972Y14009D01*
X3142Y13892D01*
D02*
G37*
G36*
X-42112Y7867D02*
X-42345Y7634D01*
X-42533Y7352D01*
X-42599Y7021D01*
Y3638D01*
X-43080Y3278D01*
X-43159Y3238D01*
X-43283Y3211D01*
X-43664Y3287D01*
X-43701Y3294D01*
X-44335Y3217D01*
X-44335Y3216D01*
X-47776D01*
Y-170D01*
X-47932Y-329D01*
X-48632Y-42D01*
Y1911D01*
X-48332Y5720D01*
X-47973Y7986D01*
X-47953Y8023D01*
X-47587Y8390D01*
X-47419Y8514D01*
X-42380D01*
X-42112Y7867D01*
D02*
G37*
G36*
X-26788Y9539D02*
X-26802Y9469D01*
X-26792Y9414D01*
X-26813Y9363D01*
Y6693D01*
X-26772Y6593D01*
Y5267D01*
X-27020Y4870D01*
X-30618D01*
Y1429D01*
X-30618Y1429D01*
X-30618D01*
X-30800Y999D01*
X-31496Y303D01*
Y-2756D01*
X-31506Y-2765D01*
X-31980Y-2827D01*
Y-2827D01*
X-35138D01*
X-35138Y6201D01*
X-32825Y8514D01*
X-31405D01*
X-31023Y8672D01*
X-30864Y9055D01*
Y10195D01*
X-28796D01*
X-28697Y10236D01*
X-26788D01*
Y9539D01*
D02*
G37*
G36*
X-27953Y-8661D02*
Y-12846D01*
X-28020D01*
Y-16287D01*
X-27953D01*
Y-20501D01*
X-28318Y-20866D01*
X-34252D01*
X-34579Y-20539D01*
Y-17571D01*
X-34646D01*
Y-12233D01*
X-35090Y-11789D01*
X-35228Y-11346D01*
X-35228D01*
Y-8457D01*
X-35165Y-8394D01*
X-31980D01*
Y-8268D01*
X-28346D01*
X-27953Y-8661D01*
D02*
G37*
%LPC*%
G36*
X6740Y45087D02*
X3575D01*
Y44065D01*
X3435D01*
X3103Y43999D01*
X2822Y43812D01*
X2573Y43562D01*
X1905Y43398D01*
X1610Y43545D01*
X1453Y43650D01*
X984Y43743D01*
X516Y43650D01*
X119Y43385D01*
X-146Y42988D01*
X-239Y42520D01*
X-146Y42052D01*
X119Y41655D01*
X169Y41622D01*
Y38240D01*
X-585Y37486D01*
X-762Y37222D01*
X-824Y36909D01*
X-824Y36909D01*
Y36007D01*
X-1561Y35271D01*
X-1738Y35006D01*
X-1800Y34694D01*
X-1800Y34694D01*
Y32093D01*
X-2402Y31499D01*
X-2870Y31406D01*
X-3267Y31141D01*
X-3532Y30744D01*
X-3625Y30276D01*
X-3532Y29807D01*
X-3267Y29410D01*
X-2870Y29145D01*
X-2402Y29052D01*
X-2369Y29059D01*
X-1681Y29087D01*
X-1681Y29087D01*
X-1681Y29087D01*
X1681D01*
X1681Y29087D01*
X2369Y29059D01*
X2402Y29052D01*
X2870Y29145D01*
X3267Y29410D01*
X3532Y29807D01*
X3625Y30276D01*
X3532Y30744D01*
X3267Y31141D01*
X2870Y31406D01*
X2402Y31499D01*
X1933Y31406D01*
X1536Y31141D01*
X1503Y31091D01*
X984D01*
X984Y31091D01*
X960Y31087D01*
X881D01*
X802Y31071D01*
X-169D01*
Y34356D01*
X568Y35092D01*
X568Y35092D01*
X745Y35357D01*
X807Y35669D01*
Y36052D01*
X923Y36122D01*
X1324Y36101D01*
X1724Y35942D01*
X1801Y35827D01*
X1862Y35173D01*
Y33535D01*
X4043D01*
Y34663D01*
X4743Y35127D01*
X4921Y35092D01*
X5429Y35193D01*
X5858Y35480D01*
X6146Y35910D01*
X6218Y36272D01*
X7241Y37295D01*
X10539D01*
Y40067D01*
X5996D01*
Y38934D01*
X4776Y37714D01*
X4414Y37642D01*
X3721Y38021D01*
Y41921D01*
X6740D01*
Y45087D01*
D02*
G37*
G36*
X-3535D02*
X-6701D01*
Y42403D01*
X-6701Y41921D01*
X-6936Y41837D01*
X-7310Y41703D01*
X-9457D01*
Y41123D01*
X-12689D01*
Y42823D01*
X-16051D01*
Y38000D01*
X-16231Y37964D01*
X-16774Y37601D01*
X-17137Y37058D01*
X-17264Y36417D01*
X-17137Y35777D01*
X-16774Y35234D01*
X-16231Y34871D01*
X-15590Y34743D01*
X-13937D01*
X-13296Y34871D01*
X-12753Y35234D01*
X-12391Y35777D01*
X-12263Y36417D01*
X-12391Y37058D01*
X-12419Y37101D01*
X-12689Y37689D01*
Y39389D01*
X-9457D01*
Y38538D01*
X-6291D01*
Y41221D01*
X-6291Y41703D01*
X-6056Y41787D01*
X-5682Y41921D01*
X-4346D01*
X-4043Y41346D01*
Y39244D01*
X-1862D01*
Y41346D01*
X-1862D01*
X-1834Y42035D01*
X-1822Y42052D01*
X-1729Y42520D01*
X-1822Y42988D01*
X-2088Y43385D01*
X-2485Y43650D01*
X-2739Y43701D01*
X-2930Y43893D01*
X-3212Y44080D01*
X-3535Y44145D01*
Y45087D01*
D02*
G37*
G36*
X-4921Y37743D02*
X-5429Y37642D01*
X-5858Y37355D01*
X-6146Y36925D01*
X-6247Y36417D01*
X-6146Y35910D01*
X-5858Y35480D01*
X-5429Y35193D01*
X-4921Y35092D01*
X-4414Y35193D01*
X-3984Y35480D01*
X-3697Y35910D01*
X-3596Y36417D01*
X-3697Y36925D01*
X-3984Y37355D01*
X-4414Y37642D01*
X-4921Y37743D01*
D02*
G37*
G36*
X14764Y38252D02*
X14062Y38112D01*
X13467Y37714D01*
X13069Y37119D01*
X12929Y36417D01*
X13069Y35715D01*
X13467Y35120D01*
X14062Y34723D01*
X14764Y34583D01*
X15466Y34723D01*
X16061Y35120D01*
X16459Y35715D01*
X16598Y36417D01*
X16459Y37119D01*
X16061Y37714D01*
X15466Y38112D01*
X14764Y38252D01*
D02*
G37*
G36*
X1681Y28236D02*
X-1681D01*
X-1681Y26252D01*
X-2043Y26130D01*
X-2440Y25865D01*
X-2705Y25468D01*
X-2798Y25000D01*
X-2705Y24532D01*
X-2440Y24135D01*
X-2043Y23870D01*
X-1575Y23776D01*
X-1107Y23870D01*
X-710Y24135D01*
X-444Y24532D01*
X-0Y24712D01*
X444Y24532D01*
X710Y24135D01*
X1107Y23870D01*
X1575Y23776D01*
X2043Y23870D01*
X2440Y24135D01*
X2705Y24532D01*
X2798Y25000D01*
X2705Y25468D01*
X2440Y25865D01*
X2043Y26130D01*
X1681Y26252D01*
X1681Y26862D01*
Y28236D01*
D02*
G37*
G36*
X8268Y-4595D02*
X7572Y-4687D01*
X6923Y-4955D01*
X6367Y-5382D01*
X5940Y-5939D01*
X5671Y-6588D01*
X5579Y-7283D01*
X5671Y-7979D01*
X5940Y-8628D01*
X6367Y-9184D01*
X6923Y-9612D01*
X7572Y-9880D01*
X8268Y-9972D01*
X8963Y-9880D01*
X9612Y-9612D01*
X10169Y-9184D01*
X10596Y-8628D01*
X10864Y-7979D01*
X10956Y-7283D01*
X10864Y-6588D01*
X10596Y-5939D01*
X10169Y-5382D01*
X9612Y-4955D01*
X8963Y-4687D01*
X8268Y-4595D01*
D02*
G37*
G36*
X-25591Y-5269D02*
X-26098Y-5370D01*
X-26528Y-5657D01*
X-26815Y-6087D01*
X-26916Y-6594D01*
X-26815Y-7102D01*
X-26528Y-7532D01*
X-26458Y-7579D01*
Y-11220D01*
X-26392Y-11552D01*
X-26204Y-11834D01*
X-24220Y-13817D01*
Y-15756D01*
X-20866Y-15756D01*
X-20355Y-15756D01*
X-17512D01*
Y-15040D01*
X-16732D01*
X-16685Y-15111D01*
X-16255Y-15398D01*
X-15748Y-15499D01*
X-15241Y-15398D01*
X-14811Y-15111D01*
X-14524Y-14681D01*
X-14423Y-14173D01*
X-14524Y-13666D01*
X-14811Y-13236D01*
X-15241Y-12949D01*
X-15748Y-12848D01*
X-16255Y-12949D01*
X-16685Y-13236D01*
X-16732Y-13306D01*
X-17512D01*
Y-12591D01*
X-20866Y-12591D01*
X-21377Y-12591D01*
X-22994D01*
X-24724Y-10861D01*
Y-7579D01*
X-24653Y-7532D01*
X-24366Y-7102D01*
X-24265Y-6594D01*
X-24366Y-6087D01*
X-24653Y-5657D01*
X-25083Y-5370D01*
X-25591Y-5269D01*
D02*
G37*
G36*
X-6299Y-14127D02*
X-6806Y-14228D01*
X-7237Y-14515D01*
X-7524Y-14945D01*
X-7625Y-15453D01*
X-7550Y-15828D01*
X-7587Y-16528D01*
X-7587D01*
Y-20283D01*
X-5012D01*
Y-16528D01*
X-5012Y-16528D01*
X-5048Y-15828D01*
X-4974Y-15453D01*
X-5075Y-14945D01*
X-5362Y-14515D01*
X-5792Y-14228D01*
X-6299Y-14127D01*
D02*
G37*
G36*
X-8327Y-33001D02*
X-9023Y-33092D01*
X-9671Y-33361D01*
X-10228Y-33788D01*
X-10655Y-34345D01*
X-10924Y-34993D01*
X-11015Y-35689D01*
X-10924Y-36385D01*
X-10655Y-37033D01*
X-10228Y-37590D01*
X-9994Y-37769D01*
X-9986Y-37784D01*
Y-38594D01*
X-9994Y-38609D01*
X-10228Y-38788D01*
X-10655Y-39345D01*
X-10924Y-39993D01*
X-11015Y-40689D01*
X-10924Y-41385D01*
X-10655Y-42033D01*
X-10228Y-42590D01*
X-9671Y-43017D01*
X-9023Y-43286D01*
X-8327Y-43377D01*
X-7631Y-43286D01*
X-6983Y-43017D01*
X-6426Y-42590D01*
X-5999Y-42033D01*
X-5730Y-41385D01*
X-5638Y-40689D01*
X-5730Y-39993D01*
X-5999Y-39345D01*
X-6426Y-38788D01*
X-6660Y-38609D01*
X-6668Y-38594D01*
Y-37784D01*
X-6660Y-37769D01*
X-6426Y-37590D01*
X-5999Y-37033D01*
X-5730Y-36385D01*
X-5638Y-35689D01*
X-5730Y-34993D01*
X-5999Y-34345D01*
X-6426Y-33788D01*
X-6983Y-33361D01*
X-7631Y-33092D01*
X-8327Y-33001D01*
D02*
G37*
G36*
X-38233Y22115D02*
X-42732D01*
Y9963D01*
X-38233D01*
Y15373D01*
X-37803Y15543D01*
X-37733Y15543D01*
X-31488D01*
Y21858D01*
X-37733D01*
X-37803Y21858D01*
X-38233Y22028D01*
Y22115D01*
D02*
G37*
%LPD*%
G36*
X-32029Y16084D02*
X-37733D01*
X-37733Y16085D01*
X-38145Y16515D01*
X-38233Y16625D01*
Y20776D01*
X-38145Y20887D01*
X-37733Y21317D01*
X-37733Y21317D01*
X-32029D01*
Y16084D01*
D02*
G37*
D13*
X-14764Y40256D02*
X-14705Y40315D01*
X-39233Y10963D02*
X-41732D01*
X-39233D02*
Y12034D01*
X-39352Y12391D01*
X-39471Y12510D01*
X-39709Y12629D01*
X-39947D01*
X-40185Y12510D01*
X-40304Y12391D01*
X-40423Y12034D01*
Y10963D02*
Y12034D01*
X-40542Y12391D01*
X-40661Y12510D01*
X-40899Y12629D01*
X-41256D01*
X-41494Y12510D01*
X-41613Y12391D01*
X-41732Y12034D01*
Y10963D01*
X-39590Y14855D02*
X-39352Y14617D01*
X-39233Y14259D01*
Y13783D01*
X-39352Y13426D01*
X-39590Y13188D01*
X-39828D01*
X-40066Y13307D01*
X-40185Y13426D01*
X-40304Y13664D01*
X-40542Y14378D01*
X-40661Y14617D01*
X-40780Y14736D01*
X-41018Y14855D01*
X-41375D01*
X-41613Y14617D01*
X-41732Y14259D01*
Y13783D01*
X-41613Y13426D01*
X-41375Y13188D01*
X-40661Y15414D02*
Y17556D01*
X-39233Y18294D02*
X-41732Y19247D01*
X-39233Y20199D02*
X-41732Y19247D01*
X-39709Y20520D02*
X-39590Y20758D01*
X-39233Y21115D01*
X-41732D01*
D14*
X51181Y0D02*
G03*
X51181Y0I-51181J0D01*
G01*
D28*
X-46457Y-4173D02*
D03*
Y-7638D02*
D03*
X-23228Y24173D02*
D03*
Y20709D02*
D03*
X-46055Y1417D02*
D03*
Y4882D02*
D03*
X-37008Y2598D02*
D03*
Y6063D02*
D03*
D29*
X-11811Y-16929D02*
D03*
Y-14567D02*
D03*
D30*
X-12559Y14567D02*
D03*
X-9094D02*
D03*
X-32283Y3150D02*
D03*
X-28819D02*
D03*
X-32913Y-19291D02*
D03*
X-36378D02*
D03*
X-29685Y-14567D02*
D03*
X-26221D02*
D03*
D55*
X-1575Y25000D02*
X-1482D01*
X-787Y27146D02*
X-550Y26908D01*
Y25932D02*
Y26908D01*
X-787Y27146D02*
Y27244D01*
X-1482Y25000D02*
X-550Y25932D01*
X787Y27146D02*
Y27244D01*
X1482Y25000D02*
X1575D01*
X550Y26908D02*
X787Y27146D01*
X550Y25932D02*
Y26908D01*
Y25932D02*
X1482Y25000D01*
X-2402Y30276D02*
X-984D01*
X-2461D02*
X-2402D01*
X-9Y36909D02*
X984Y37902D01*
X-9Y35669D02*
Y36909D01*
X-984Y34694D02*
X-9Y35669D01*
X-984Y30276D02*
Y34694D01*
X984Y37902D02*
Y42520D01*
X979Y30271D02*
X984Y30276D01*
X881Y30271D02*
X979D01*
X787Y30177D02*
X881Y30271D01*
X787Y30079D02*
Y30177D01*
X984Y30276D02*
X2402D01*
D56*
X-44725Y1969D02*
G03*
X-46055Y1417I0J-1882D01*
G01*
X-46850Y-3223D02*
G03*
X-46457Y-4173I1344J0D01*
G01*
X-9078Y17184D02*
Y17274D01*
X-9094Y17290D02*
X-9078Y17274D01*
X-6102Y17184D02*
Y17185D01*
Y14764D02*
Y17184D01*
X-9094Y14567D02*
Y17290D01*
X-12992Y22920D02*
Y25591D01*
Y22920D02*
X-12886Y22814D01*
Y22335D02*
Y22814D01*
Y22335D02*
X-11811Y21260D01*
X-12559Y14567D02*
X-12531D01*
X-11811Y13847D01*
Y7480D02*
Y13847D01*
X4921Y36417D02*
X6799Y38295D01*
X7382Y38572D02*
X8159D01*
X6996Y38295D02*
X7382Y38681D01*
X6799Y38295D02*
X6996D01*
X7382Y38681D02*
X8268D01*
X9539Y35164D02*
X10792Y36417D01*
X9539Y34933D02*
Y35164D01*
X9154Y34547D02*
X9539Y34933D01*
X8268Y34547D02*
X9154D01*
X8159Y38572D02*
X8268Y38681D01*
X-44725Y1969D02*
X-43701D01*
X-46055Y1417D02*
X-45819Y1181D01*
X-28346Y20079D02*
X-23858D01*
X-23228Y20709D01*
X-18504Y29429D02*
Y32677D01*
Y29429D02*
X-18110Y29035D01*
X-8009Y40256D02*
X-7874Y40121D01*
X-23779Y21260D02*
X-23228Y20709D01*
X12008Y-42067D02*
Y-32480D01*
X15748Y-28740D01*
X12008Y-42067D02*
X14035Y-44094D01*
X4724Y-28740D02*
X6693Y-30709D01*
Y-41752D02*
Y-30709D01*
X4724Y-20669D02*
Y-17717D01*
X6693Y-41752D02*
X9035Y-44094D01*
X4724Y-20669D02*
X4724Y-20669D01*
X-6299Y-18406D02*
Y-15453D01*
X18504Y-43243D02*
Y-28740D01*
X18986Y-43744D02*
Y-43725D01*
X18504Y-43243D02*
X18986Y-43725D01*
X-2756Y36410D02*
Y36573D01*
X4724Y17520D02*
Y20079D01*
X11634Y20295D02*
Y22815D01*
X9252Y20295D02*
Y22835D01*
X15748Y26575D02*
Y29724D01*
X5906Y30177D02*
Y31988D01*
X5158Y32736D02*
X5906Y31988D01*
X2953Y32736D02*
X5158D01*
X4961Y47244D02*
X5158Y47047D01*
X2402Y47244D02*
X4961D01*
X-4921D02*
X-2362D01*
X-5118Y47047D02*
X-4921Y47244D01*
X-2953Y36769D02*
X-2756Y36573D01*
X-2953Y36769D02*
Y38445D01*
X11614Y22835D02*
X11634Y22815D01*
X10792Y36417D02*
X10827D01*
X4724Y17520D02*
X9449D01*
X-14764Y40256D02*
X-14628Y40121D01*
X-8071Y36614D02*
X-7874Y36417D01*
X-10827Y36614D02*
X-8071D01*
X-7933Y40256D02*
X-7874Y40315D01*
X-39803Y6063D02*
X-37008D01*
X-15551Y-7390D02*
Y-5118D01*
X-17020Y-8858D02*
X-15551Y-7390D01*
X-17717Y-8858D02*
X-17020D01*
X12027D02*
X17717D01*
X0Y-17717D02*
Y-12205D01*
X-39961Y-24016D02*
Y-21457D01*
X-40354Y-5315D02*
Y-1457D01*
X-38071Y-5610D02*
X-36417D01*
X-26221Y-17165D02*
Y-14567D01*
X-46850Y-3223D02*
Y-1575D01*
X-46055Y4882D02*
Y7484D01*
X-28819Y3150D02*
X-25827D01*
X-28839Y8661D02*
X-28346D01*
X-27522Y9486D01*
X-26219Y13250D02*
X-26181Y13287D01*
X-19094Y16929D02*
Y19291D01*
X-19094Y14567D02*
X-16535D01*
D57*
X-22638D02*
Y16929D01*
X-24705Y40256D02*
X-21850D01*
X-25984Y38976D02*
X-24705Y40256D01*
X-27522Y9486D02*
Y10963D01*
X-26219Y12266D01*
Y13250D01*
D58*
X-5118Y21654D02*
Y28871D01*
X-5512Y21260D02*
X-5118Y21654D01*
X-11811Y-20728D02*
Y-16929D01*
X-6142Y32677D02*
X-5844Y32379D01*
Y30955D02*
Y32379D01*
X-5881Y30918D02*
X-5844Y30955D01*
X-5881Y29634D02*
Y30918D01*
Y29634D02*
X-5118Y28871D01*
X-14567Y29232D02*
X-13933Y29866D01*
X-13539Y30918D02*
X-11780Y32677D01*
X-9685D01*
X-13539Y29866D02*
Y30918D01*
X-14370Y29035D02*
X-13539Y29866D01*
X-14370Y40256D02*
X-8009D01*
X21457Y19055D02*
Y23425D01*
Y12992D02*
Y15512D01*
X9449Y-28937D02*
X12992Y-25394D01*
X9449Y-39370D02*
Y-28937D01*
X12992Y-25394D02*
Y-19685D01*
X9252Y-39370D02*
X9449D01*
X10630Y-19685D02*
X12992D01*
X6447Y-23868D02*
X10630Y-19685D01*
X5069Y-23868D02*
X6447D01*
X4724Y-24213D02*
X5069Y-23868D01*
X15748Y12992D02*
X15748Y12992D01*
X15748Y12992D02*
Y15748D01*
X12430Y13976D02*
X14130Y12277D01*
Y10477D02*
Y12277D01*
Y10477D02*
X15748Y8858D01*
X16727D01*
X9449Y13976D02*
X12430D01*
X21654Y12992D02*
X21654Y12992D01*
X-6240Y-24252D02*
X4685D01*
X-6299Y-24311D02*
X-6240Y-24252D01*
X4685D02*
X4724Y-24213D01*
X-6339Y-24272D02*
X-6299Y-24311D01*
X-11811Y-24272D02*
X-6339D01*
X7480Y7874D02*
Y12008D01*
X9449Y13976D01*
X15748Y8858D02*
X16727D01*
X17717D01*
X11811Y4724D02*
X14130Y7043D01*
Y7240D01*
X15748Y8858D01*
X-11811Y4724D02*
X11811D01*
X-14130Y7043D02*
X-11811Y4724D01*
X-14130Y7043D02*
Y7240D01*
X-15748Y8858D02*
X-14130Y7240D01*
X-17717Y8858D02*
X-15748D01*
X0Y17711D02*
Y17717D01*
Y17711D02*
X1422Y16289D01*
X2412D01*
X4724Y13976D01*
X2854Y42618D02*
X3435Y43199D01*
X4852D01*
X5158Y43504D01*
X2854Y36410D02*
Y42618D01*
X-4894Y43280D02*
X-3543D01*
X-5118Y43504D02*
X-4894Y43280D01*
X-3543D02*
X-2953Y42689D01*
Y42520D02*
Y42689D01*
Y40295D02*
Y42520D01*
X2953Y34587D02*
Y36312D01*
X2854Y36410D02*
X2953Y36312D01*
X15748Y19291D02*
Y23425D01*
D59*
X-15094Y18835D02*
X-5252D01*
X-3740Y17323D01*
X-15551Y19291D02*
X-15094Y18835D01*
X-3740Y14764D02*
Y17323D01*
X-3543Y7480D02*
Y14567D01*
X-3740Y14764D02*
X-3543Y14567D01*
X-11811Y-14567D02*
Y-5020D01*
X-33388Y6693D02*
X-30966D01*
X-30555Y7103D01*
Y7437D01*
X-29331Y8661D01*
X-28839D01*
X-34914Y8219D02*
X-33388Y6693D01*
X-40534Y8219D02*
X-34914D01*
X21457Y26575D02*
Y29724D01*
X-41732Y7021D02*
X-40534Y8219D01*
X-41732Y3361D02*
Y7021D01*
Y3361D02*
X-38579Y207D01*
Y-1264D02*
Y207D01*
Y-1264D02*
X-38386Y-1457D01*
X-37008Y2598D02*
X-36417Y2008D01*
Y-1457D02*
Y2008D01*
X-14173Y-2657D02*
X-11811Y-5020D01*
X-25591Y-2657D02*
X-14173D01*
X-19094Y-14173D02*
X-15748D01*
X-25591Y-11220D02*
X-22638Y-14173D01*
X-25591Y-11220D02*
Y-6594D01*
X-36417Y-24016D02*
X-36378Y-23976D01*
Y-19291D01*
X-36417Y-19252D02*
X-36378Y-19291D01*
X-36417Y-19252D02*
Y-14567D01*
Y-9764D01*
X-15551Y19291D02*
X-15551Y19291D01*
X-15551Y19291D02*
Y24173D01*
D61*
X-34646Y12795D02*
D03*
D62*
Y18701D02*
D03*
D63*
X-13327Y-35689D02*
D03*
D64*
X-8327D02*
D03*
X-13327Y-40689D02*
D03*
X-8327D02*
D03*
D65*
X9449Y44882D02*
D03*
Y27953D02*
D03*
X-9449Y44882D02*
D03*
Y27953D02*
D03*
D66*
X-9078Y17184D02*
D03*
X-6102D02*
D03*
X-11811Y7480D02*
D03*
X-43701Y4331D02*
D03*
X1962Y7352D02*
D03*
X10956D02*
D03*
X-36614Y25591D02*
D03*
X-29215Y-36929D02*
D03*
X-37377Y-29426D02*
D03*
X25591Y-39342D02*
D03*
X4733Y-47244D02*
D03*
X22153Y39653D02*
D03*
X19653Y34653D02*
D03*
Y4653D02*
D03*
X22153Y-347D02*
D03*
X19653Y-5347D02*
D03*
Y-15347D02*
D03*
X14653Y44653D02*
D03*
X17153Y-347D02*
D03*
X12153D02*
D03*
X9653Y-15347D02*
D03*
X7153Y19653D02*
D03*
X4653Y-15347D02*
D03*
X2153Y-347D02*
D03*
X-347Y-5347D02*
D03*
X-2847Y-347D02*
D03*
Y-10347D02*
D03*
Y-40347D02*
D03*
X-5347Y-45347D02*
D03*
X-7847Y-347D02*
D03*
Y-30347D02*
D03*
X-10347Y-45347D02*
D03*
X-15347Y44653D02*
D03*
Y4653D02*
D03*
X-12847Y-347D02*
D03*
X-20347Y34653D02*
D03*
Y-25347D02*
D03*
X-17847Y-40347D02*
D03*
X-22847D02*
D03*
X-42847Y-20347D02*
D03*
X4724Y-38976D02*
D03*
X-24803Y37008D02*
D03*
X-15354Y12598D02*
D03*
X-12992Y25591D02*
D03*
X-22638Y16929D02*
D03*
X-28346Y20079D02*
D03*
X4724Y-28740D02*
D03*
X15748D02*
D03*
X12992Y-19685D02*
D03*
X9449Y-39370D02*
D03*
X15748Y12992D02*
D03*
X21457D02*
D03*
X4724Y-17717D02*
D03*
X-6299Y-15453D02*
D03*
X18504Y-28740D02*
D03*
X14764Y-38917D02*
D03*
X18986Y-43887D02*
D03*
X9035Y-44094D02*
D03*
X14035D02*
D03*
X-4921Y36417D02*
D03*
X-2756Y36410D02*
D03*
X5512Y23228D02*
D03*
X4724Y20079D02*
D03*
X11634Y20295D02*
D03*
X9252D02*
D03*
X15748Y26575D02*
D03*
X5906Y30177D02*
D03*
X7480Y7874D02*
D03*
X2402Y47244D02*
D03*
X-2362D02*
D03*
X4921Y36417D02*
D03*
X-10827Y36614D02*
D03*
X10827Y36417D02*
D03*
X-39803Y6063D02*
D03*
X-15551Y-5118D02*
D03*
X-25591Y-2657D02*
D03*
X-25197Y-22441D02*
D03*
X24803Y17003D02*
D03*
Y-28740D02*
D03*
X-3543Y7480D02*
D03*
X-5906D02*
D03*
X21457Y26575D02*
D03*
X12027Y-8858D02*
D03*
X0Y-12205D02*
D03*
X-39961Y-21457D02*
D03*
X-36417Y-6693D02*
D03*
Y-4331D02*
D03*
X-26221Y-17165D02*
D03*
X-43701Y-14961D02*
D03*
Y-12598D02*
D03*
X-29528Y-19685D02*
D03*
Y-17323D02*
D03*
X-46850Y-1575D02*
D03*
X-46055Y7484D02*
D03*
X-43701Y1969D02*
D03*
X-15748Y-14173D02*
D03*
X-25591Y-6594D02*
D03*
X-41732Y-17165D02*
D03*
X-33724Y-4331D02*
D03*
Y-6693D02*
D03*
X-39248D02*
D03*
Y-4331D02*
D03*
X-25827Y3150D02*
D03*
X-18504Y32677D02*
D03*
X-19094Y16929D02*
D03*
X-16535Y14567D02*
D03*
X-25984Y38976D02*
D03*
D67*
X-4331Y30276D02*
D03*
X-3543Y25000D02*
D03*
X3543D02*
D03*
X-1575D02*
D03*
X1575D02*
D03*
X-2402Y30276D02*
D03*
X2402D02*
D03*
X2854Y36410D02*
D03*
X984Y42520D02*
D03*
X-2953D02*
D03*
D82*
X-40354Y-1457D02*
D03*
X-38386D02*
D03*
X-36417D02*
D03*
X-34449D02*
D03*
X-40354Y-9764D02*
D03*
X-36417D02*
D03*
X-34449D02*
D03*
X-38386D02*
D03*
X-32480Y-1457D02*
D03*
Y-9764D02*
D03*
D83*
X-36417Y-5610D02*
D03*
D84*
X-17717Y-8858D02*
D03*
X17717D02*
D03*
X-17717Y8858D02*
D03*
X17717D02*
D03*
D85*
X0Y-17717D02*
D03*
Y17717D02*
D03*
D86*
X8268Y34547D02*
D03*
Y38681D02*
D03*
D87*
X-36417Y-24016D02*
D03*
X-39961D02*
D03*
X-9252Y32677D02*
D03*
X-5709D02*
D03*
X-19094Y24173D02*
D03*
X-15551D02*
D03*
X-15551Y19291D02*
D03*
X-19094D02*
D03*
X-19094Y-14173D02*
D03*
X-22638D02*
D03*
Y14567D02*
D03*
X-19094D02*
D03*
X-32874Y-14567D02*
D03*
X-36417D02*
D03*
D88*
X-1811Y28661D02*
D03*
X1811D02*
D03*
D89*
X-787Y30079D02*
D03*
X787D02*
D03*
Y27244D02*
D03*
X-787D02*
D03*
D90*
X2953Y32736D02*
D03*
Y34587D02*
D03*
X-2953Y38445D02*
D03*
Y40295D02*
D03*
D91*
X-24705Y8661D02*
D03*
D92*
X-28839D02*
D03*
D93*
X-14370Y40256D02*
D03*
X-21850D02*
D03*
X-14370Y29035D02*
D03*
X-21850D02*
D03*
X-18110D02*
D03*
D94*
X-6299Y-24311D02*
D03*
Y-18406D02*
D03*
X-28937Y14173D02*
D03*
D95*
X15748Y23425D02*
D03*
Y29724D02*
D03*
X21457Y23425D02*
D03*
Y29724D02*
D03*
D96*
X-26181Y15059D02*
D03*
Y13287D02*
D03*
D97*
X-3740Y14764D02*
D03*
X-6102D02*
D03*
X11614Y22835D02*
D03*
X9252D02*
D03*
D98*
X-11811Y21260D02*
D03*
X-5512D02*
D03*
D99*
X5158Y43504D02*
D03*
Y47047D02*
D03*
X-5118Y43504D02*
D03*
Y47047D02*
D03*
X4724Y17520D02*
D03*
Y13976D02*
D03*
X9449Y17520D02*
D03*
Y13976D02*
D03*
X-7874Y40121D02*
D03*
Y36577D02*
D03*
X4724Y-20669D02*
D03*
Y-24213D02*
D03*
X-11811Y-24272D02*
D03*
Y-20728D02*
D03*
X21457Y15512D02*
D03*
Y19055D02*
D03*
X15748Y15748D02*
D03*
Y19291D02*
D03*
M02*
