G04*
G04 #@! TF.GenerationSoftware,Altium Limited,Altium Designer,19.0.14 (431)*
G04*
G04 Layer_Color=8421504*
%FSLAX25Y25*%
%MOIN*%
G70*
G01*
G75*
%ADD14C,0.00050*%
%ADD15C,0.01968*%
%ADD16O,0.03150X0.00984*%
%ADD17O,0.00984X0.03150*%
%ADD18R,0.10551X0.10551*%
%ADD19R,0.01968X0.04724*%
%ADD20R,0.03543X0.06299*%
%ADD21R,0.01968X0.06299*%
%ADD22R,0.06299X0.01968*%
%ADD23R,0.02323X0.02441*%
G04:AMPARAMS|DCode=24|XSize=40.55mil|YSize=19.68mil|CornerRadius=0mil|HoleSize=0mil|Usage=FLASHONLY|Rotation=141.000|XOffset=0mil|YOffset=0mil|HoleType=Round|Shape=Rectangle|*
%AMROTATEDRECTD24*
4,1,4,0.02195,-0.00511,0.00956,-0.02041,-0.02195,0.00511,-0.00956,0.02041,0.02195,-0.00511,0.0*
%
%ADD24ROTATEDRECTD24*%

%ADD25R,0.01181X0.03347*%
%ADD26R,0.03228X0.02165*%
G04:AMPARAMS|DCode=27|XSize=40.55mil|YSize=19.68mil|CornerRadius=0mil|HoleSize=0mil|Usage=FLASHONLY|Rotation=219.000|XOffset=0mil|YOffset=0mil|HoleType=Round|Shape=Rectangle|*
%AMROTATEDRECTD27*
4,1,4,0.00956,0.02041,0.02195,0.00511,-0.00956,-0.02041,-0.02195,-0.00511,0.00956,0.02041,0.0*
%
%ADD27ROTATEDRECTD27*%

%ADD28R,0.02441X0.02598*%
%ADD29R,0.01575X0.01181*%
%ADD30R,0.02598X0.02441*%
D14*
X51181Y0D02*
G03*
X51181Y0I-51181J0D01*
G01*
D15*
X8650Y17717D02*
D03*
X-21654Y-29528D02*
D03*
Y-35039D02*
D03*
X14567Y17717D02*
D03*
D16*
X-28839Y-10531D02*
D03*
Y-8563D02*
D03*
Y-689D02*
D03*
Y-4626D02*
D03*
Y-2657D02*
D03*
Y-6594D02*
D03*
X-43996Y-10531D02*
D03*
Y-8563D02*
D03*
Y-2657D02*
D03*
Y-6594D02*
D03*
Y-4626D02*
D03*
Y-689D02*
D03*
D17*
X-31496Y-13189D02*
D03*
X-33465Y1969D02*
D03*
X-31496D02*
D03*
X-39370Y-13189D02*
D03*
X-41339D02*
D03*
X-33465D02*
D03*
X-37402D02*
D03*
X-35433D02*
D03*
Y1969D02*
D03*
X-37402D02*
D03*
X-41339D02*
D03*
X-39370D02*
D03*
D18*
X-36417Y-5610D02*
D03*
D19*
X17126Y-17323D02*
D03*
X22638D02*
D03*
D20*
X24803Y-24213D02*
D03*
Y12402D02*
D03*
D21*
X21260Y-24213D02*
D03*
X18504D02*
D03*
X15748D02*
D03*
X12992D02*
D03*
X10236D02*
D03*
X7480D02*
D03*
X4724D02*
D03*
X1969D02*
D03*
X-787D02*
D03*
X-3543D02*
D03*
X-6299D02*
D03*
X-9055D02*
D03*
X-11811D02*
D03*
X-14567D02*
D03*
X-11811Y12402D02*
D03*
X-9055D02*
D03*
X-6299D02*
D03*
X-3543D02*
D03*
X-787D02*
D03*
X1969D02*
D03*
X4724D02*
D03*
X7480D02*
D03*
X10236D02*
D03*
X12992D02*
D03*
D22*
X-20276Y-22441D02*
D03*
Y-19685D02*
D03*
Y-16929D02*
D03*
Y-14173D02*
D03*
Y-11417D02*
D03*
Y-8661D02*
D03*
Y-5906D02*
D03*
Y-3150D02*
D03*
Y-394D02*
D03*
Y2362D02*
D03*
Y5118D02*
D03*
Y7874D02*
D03*
Y10630D02*
D03*
D23*
X11634Y22835D02*
D03*
X8051D02*
D03*
D24*
X-14842Y32480D02*
D03*
X14842Y40354D02*
D03*
D25*
X-10827Y33150D02*
D03*
X-6890D02*
D03*
X-8858D02*
D03*
X-2953D02*
D03*
X-4921D02*
D03*
X-8858Y39685D02*
D03*
X-10827D02*
D03*
X-6890D02*
D03*
X-4921D02*
D03*
X-2953D02*
D03*
X-984Y33150D02*
D03*
X984D02*
D03*
X2953D02*
D03*
X6890D02*
D03*
X4921D02*
D03*
X8858D02*
D03*
X10827D02*
D03*
X-984Y39685D02*
D03*
X984D02*
D03*
X2953D02*
D03*
X4921D02*
D03*
X10827D02*
D03*
X6890D02*
D03*
X8858D02*
D03*
D26*
X0Y27953D02*
D03*
X-4724D02*
D03*
X0Y44882D02*
D03*
X-4724D02*
D03*
X4724Y27953D02*
D03*
Y44882D02*
D03*
D27*
X-14842Y40354D02*
D03*
X14842Y32480D02*
D03*
D28*
X-22343Y41004D02*
D03*
Y37539D02*
D03*
D29*
X-47638Y1974D02*
D03*
Y4336D02*
D03*
D30*
X-35433Y-17165D02*
D03*
X-38898D02*
D03*
M02*
