G04*
G04 #@! TF.GenerationSoftware,Altium Limited,Altium Designer,19.0.14 (431)*
G04*
G04 Layer_Color=16711935*
%FSLAX25Y25*%
%MOIN*%
G70*
G01*
G75*
%ADD14C,0.00050*%
%ADD45R,0.03241X0.03398*%
%ADD46R,0.02375X0.01981*%
%ADD47R,0.03398X0.03241*%
%ADD48C,0.00800*%
%ADD49C,0.06115*%
%ADD50R,0.06115X0.06115*%
%ADD51R,0.05131X0.05131*%
%ADD52C,0.05131*%
%ADD53C,0.05918*%
%ADD100R,0.02178X0.02965*%
%ADD101R,0.08674X0.05367*%
%ADD102R,0.08674X0.04737*%
%ADD103R,0.04343X0.08674*%
%ADD104R,0.04343X0.02572*%
%ADD105R,0.02965X0.02965*%
%ADD106R,0.01784X0.01587*%
%ADD107R,0.01587X0.01784*%
%ADD108R,0.01981X0.01902*%
%ADD109R,0.03359X0.03950*%
%ADD110R,0.04934X0.03950*%
%ADD111R,0.03162X0.04934*%
%ADD112R,0.02375X0.03556*%
%ADD113R,0.03950X0.03950*%
%ADD114R,0.02375X0.01784*%
%ADD115R,0.01981X0.02375*%
%ADD116R,0.03950X0.03950*%
%ADD117R,0.02965X0.02965*%
D14*
X51181Y0D02*
G03*
X51181Y0I-51181J0D01*
G01*
D45*
X-46457Y-4173D02*
D03*
Y-7638D02*
D03*
X-23228Y24173D02*
D03*
Y20709D02*
D03*
X-46055Y1417D02*
D03*
Y4882D02*
D03*
X-37008Y2598D02*
D03*
Y6063D02*
D03*
D46*
X-11811Y-16929D02*
D03*
Y-14567D02*
D03*
D47*
X-12559Y14567D02*
D03*
X-9094D02*
D03*
X-32283Y3150D02*
D03*
X-28819D02*
D03*
X-32913Y-19291D02*
D03*
X-36378D02*
D03*
X-29685Y-14567D02*
D03*
X-26221D02*
D03*
D48*
X-8268Y-7283D02*
D03*
X8268D02*
D03*
X21811Y-39370D02*
D03*
X1811Y-43370D02*
D03*
Y-35370D02*
D03*
X14764Y36417D02*
D03*
X-14764D02*
D03*
X29528Y29528D02*
D03*
X-29528D02*
D03*
Y-29528D02*
D03*
D49*
X-34646Y12795D02*
D03*
D50*
Y18701D02*
D03*
D51*
X-13327Y-35689D02*
D03*
D52*
X-8327D02*
D03*
X-13327Y-40689D02*
D03*
X-8327D02*
D03*
D53*
X9449Y44882D02*
D03*
Y27953D02*
D03*
X-9449Y44882D02*
D03*
Y27953D02*
D03*
D100*
X-40354Y-1457D02*
D03*
X-38386D02*
D03*
X-36417D02*
D03*
X-34449D02*
D03*
X-40354Y-9764D02*
D03*
X-36417D02*
D03*
X-34449D02*
D03*
X-38386D02*
D03*
X-32480Y-1457D02*
D03*
Y-9764D02*
D03*
D101*
X-36417Y-5610D02*
D03*
D102*
X-17717Y-8858D02*
D03*
X17717D02*
D03*
X-17717Y8858D02*
D03*
X17717D02*
D03*
D103*
X0Y-17717D02*
D03*
Y17717D02*
D03*
D104*
X8268Y34547D02*
D03*
Y38681D02*
D03*
D105*
X-36417Y-24016D02*
D03*
X-39961D02*
D03*
X-9252Y32677D02*
D03*
X-5709D02*
D03*
X-19094Y24173D02*
D03*
X-15551D02*
D03*
X-15551Y19291D02*
D03*
X-19094D02*
D03*
X-19094Y-14173D02*
D03*
X-22638D02*
D03*
Y14567D02*
D03*
X-19094D02*
D03*
X-32874Y-14567D02*
D03*
X-36417D02*
D03*
D106*
X-1811Y28661D02*
D03*
X1811D02*
D03*
D107*
X-787Y30079D02*
D03*
X787D02*
D03*
Y27244D02*
D03*
X-787D02*
D03*
D108*
X2953Y32736D02*
D03*
Y34587D02*
D03*
X-2953Y38445D02*
D03*
Y40295D02*
D03*
D109*
X-24705Y8661D02*
D03*
D110*
X-28839D02*
D03*
D111*
X-14370Y40256D02*
D03*
X-21850D02*
D03*
X-14370Y29035D02*
D03*
X-21850D02*
D03*
X-18110D02*
D03*
D112*
X-6299Y-24311D02*
D03*
Y-18406D02*
D03*
X-28937Y14173D02*
D03*
D113*
X15748Y23425D02*
D03*
Y29724D02*
D03*
X21457Y23425D02*
D03*
Y29724D02*
D03*
D114*
X-26181Y15059D02*
D03*
Y13287D02*
D03*
D115*
X-3740Y14764D02*
D03*
X-6102D02*
D03*
X11614Y22835D02*
D03*
X9252D02*
D03*
D116*
X-11811Y21260D02*
D03*
X-5512D02*
D03*
D117*
X5158Y43504D02*
D03*
Y47047D02*
D03*
X-5118Y43504D02*
D03*
Y47047D02*
D03*
X4724Y17520D02*
D03*
Y13976D02*
D03*
X9449Y17520D02*
D03*
Y13976D02*
D03*
X-7874Y40121D02*
D03*
Y36577D02*
D03*
X4724Y-20669D02*
D03*
Y-24213D02*
D03*
X-11811Y-24272D02*
D03*
Y-20728D02*
D03*
X21457Y15512D02*
D03*
Y19055D02*
D03*
X15748Y15748D02*
D03*
Y19291D02*
D03*
M02*
