G04*
G04 #@! TF.GenerationSoftware,Altium Limited,Altium Designer,19.0.14 (431)*
G04*
G04 Layer_Color=8388736*
%FSLAX25Y25*%
%MOIN*%
G70*
G01*
G75*
%ADD14C,0.00050*%
%ADD31C,0.02769*%
%ADD32C,0.04198*%
%ADD33O,0.03950X0.01784*%
%ADD34O,0.01784X0.03950*%
%ADD35R,0.11351X0.11351*%
%ADD36R,0.02769X0.05524*%
%ADD37R,0.04343X0.07099*%
%ADD38R,0.02769X0.07099*%
%ADD39R,0.07099X0.02769*%
%ADD40R,0.03123X0.03241*%
G04:AMPARAMS|DCode=41|XSize=48.55mil|YSize=27.69mil|CornerRadius=0mil|HoleSize=0mil|Usage=FLASHONLY|Rotation=141.000|XOffset=0mil|YOffset=0mil|HoleType=Round|Shape=Rectangle|*
%AMROTATEDRECTD41*
4,1,4,0.02758,-0.00452,0.01015,-0.02604,-0.02758,0.00452,-0.01015,0.02604,0.02758,-0.00452,0.0*
%
%ADD41ROTATEDRECTD41*%

%ADD42R,0.01981X0.04147*%
%ADD43R,0.04028X0.02965*%
G04:AMPARAMS|DCode=44|XSize=48.55mil|YSize=27.69mil|CornerRadius=0mil|HoleSize=0mil|Usage=FLASHONLY|Rotation=219.000|XOffset=0mil|YOffset=0mil|HoleType=Round|Shape=Rectangle|*
%AMROTATEDRECTD44*
4,1,4,0.01015,0.02604,0.02758,0.00452,-0.01015,-0.02604,-0.02758,-0.00452,0.01015,0.02604,0.0*
%
%ADD44ROTATEDRECTD44*%

%ADD45R,0.03241X0.03398*%
%ADD46R,0.02375X0.01981*%
%ADD47R,0.03398X0.03241*%
%ADD48C,0.00800*%
%ADD49R,0.06115X0.06115*%
%ADD50C,0.06115*%
%ADD51C,0.05131*%
%ADD52R,0.05131X0.05131*%
%ADD53C,0.05918*%
D14*
X51181Y0D02*
G03*
X51181Y0I-51181J0D01*
G01*
D31*
X8650Y17717D02*
D03*
X-21654Y-29528D02*
D03*
Y-35039D02*
D03*
X14567Y17717D02*
D03*
D32*
X6811Y-41870D02*
D03*
Y-36870D02*
D03*
X11811Y-41870D02*
D03*
Y-36870D02*
D03*
X16811Y-41870D02*
D03*
Y-36870D02*
D03*
D33*
X-28839Y-10531D02*
D03*
Y-8563D02*
D03*
Y-689D02*
D03*
Y-4626D02*
D03*
Y-2657D02*
D03*
Y-6594D02*
D03*
X-43996Y-10531D02*
D03*
Y-8563D02*
D03*
Y-2657D02*
D03*
Y-6594D02*
D03*
Y-4626D02*
D03*
Y-689D02*
D03*
D34*
X-31496Y-13189D02*
D03*
X-33465Y1969D02*
D03*
X-31496D02*
D03*
X-39370Y-13189D02*
D03*
X-41339D02*
D03*
X-33465D02*
D03*
X-37402D02*
D03*
X-35433D02*
D03*
Y1969D02*
D03*
X-37402D02*
D03*
X-41339D02*
D03*
X-39370D02*
D03*
D35*
X-36417Y-5610D02*
D03*
D36*
X17126Y-17323D02*
D03*
X22638D02*
D03*
D37*
X24803Y-24213D02*
D03*
Y12402D02*
D03*
D38*
X21260Y-24213D02*
D03*
X18504D02*
D03*
X15748D02*
D03*
X12992D02*
D03*
X10236D02*
D03*
X7480D02*
D03*
X4724D02*
D03*
X1969D02*
D03*
X-787D02*
D03*
X-3543D02*
D03*
X-6299D02*
D03*
X-9055D02*
D03*
X-11811D02*
D03*
X-14567D02*
D03*
X-11811Y12402D02*
D03*
X-9055D02*
D03*
X-6299D02*
D03*
X-3543D02*
D03*
X-787D02*
D03*
X1969D02*
D03*
X4724D02*
D03*
X7480D02*
D03*
X10236D02*
D03*
X12992D02*
D03*
D39*
X-20276Y-22441D02*
D03*
Y-19685D02*
D03*
Y-16929D02*
D03*
Y-14173D02*
D03*
Y-11417D02*
D03*
Y-8661D02*
D03*
Y-5906D02*
D03*
Y-3150D02*
D03*
Y-394D02*
D03*
Y2362D02*
D03*
Y5118D02*
D03*
Y7874D02*
D03*
Y10630D02*
D03*
D40*
X11634Y22835D02*
D03*
X8051D02*
D03*
D41*
X-14842Y32480D02*
D03*
X14842Y40354D02*
D03*
D42*
X-10827Y33150D02*
D03*
X-6890D02*
D03*
X-8858D02*
D03*
X-2953D02*
D03*
X-4921D02*
D03*
X-8858Y39685D02*
D03*
X-10827D02*
D03*
X-6890D02*
D03*
X-4921D02*
D03*
X-2953D02*
D03*
X-984Y33150D02*
D03*
X984D02*
D03*
X2953D02*
D03*
X6890D02*
D03*
X4921D02*
D03*
X8858D02*
D03*
X10827D02*
D03*
X-984Y39685D02*
D03*
X984D02*
D03*
X2953D02*
D03*
X4921D02*
D03*
X10827D02*
D03*
X6890D02*
D03*
X8858D02*
D03*
D43*
X0Y27953D02*
D03*
X-4724D02*
D03*
X0Y44882D02*
D03*
X-4724D02*
D03*
X4724Y27953D02*
D03*
Y44882D02*
D03*
D44*
X-14842Y40354D02*
D03*
X14842Y32480D02*
D03*
D45*
X-22343Y41004D02*
D03*
Y37539D02*
D03*
D46*
X-47638Y1974D02*
D03*
Y4336D02*
D03*
D47*
X-35433Y-17165D02*
D03*
X-38898D02*
D03*
D48*
X8268Y-7283D02*
D03*
X-8268D02*
D03*
X1811Y-35370D02*
D03*
Y-43370D02*
D03*
X21811Y-39370D02*
D03*
X-14764Y36417D02*
D03*
X14764D02*
D03*
X29528Y29528D02*
D03*
X-29528D02*
D03*
Y-29528D02*
D03*
D49*
X-34646Y18701D02*
D03*
D50*
Y12795D02*
D03*
D51*
X-8327Y-40689D02*
D03*
X-13327D02*
D03*
X-8327Y-35689D02*
D03*
D52*
X-13327D02*
D03*
D53*
X-9449Y27953D02*
D03*
Y44882D02*
D03*
X9449Y27953D02*
D03*
Y44882D02*
D03*
M02*
