G04*
G04 #@! TF.GenerationSoftware,Altium Limited,Altium Designer,19.0.14 (431)*
G04*
G04 Layer_Color=2752767*
%FSLAX25Y25*%
%MOIN*%
G70*
G01*
G75*
%ADD14C,0.00050*%
%ADD121C,0.00200*%
%ADD122C,0.00267*%
D14*
X51181Y0D02*
G03*
X51181Y0I-51181J0D01*
G01*
D121*
X7468Y-8083D02*
Y-6483D01*
X9068D01*
Y-8083D01*
X7468D01*
X-9068D02*
Y-6483D01*
X-7468D01*
Y-8083D01*
X-9068D01*
X1011Y-36170D02*
Y-34570D01*
X2611D01*
Y-36170D01*
X1011D01*
Y-44170D02*
Y-42570D01*
X2611D01*
Y-44170D01*
X1011D01*
X21011Y-40170D02*
Y-38570D01*
X22611D01*
Y-40170D01*
X21011D01*
X-8327Y-41489D02*
X-9127Y-39889D01*
X-7527D01*
X-8327Y-41489D01*
X-13327D02*
X-14127Y-39889D01*
X-12527D01*
X-13327Y-41489D01*
X-8327Y-36489D02*
X-9127Y-34889D01*
X-7527D01*
X-8327Y-36489D01*
X-13327D02*
X-14127Y-34889D01*
X-12527D01*
X-13327Y-36489D01*
X-9449Y27153D02*
X-9049Y27553D01*
X-8649D01*
X-9049Y27953D01*
X-8649Y28353D01*
X-9049D01*
X-9449Y28753D01*
X-9849Y28353D01*
X-10249D01*
X-9849Y27953D01*
X-10249Y27553D01*
X-9849D01*
X-9449Y27153D01*
X-15564Y35617D02*
X-15164Y36417D01*
X-15564Y37217D01*
X-14764Y36817D01*
X-13964Y37217D01*
X-14364Y36417D01*
X-13964Y35617D01*
X-14764Y36017D01*
X-15564Y35617D01*
X-9449Y44082D02*
X-9049Y44482D01*
X-8649D01*
X-9049Y44882D01*
X-8649Y45282D01*
X-9049D01*
X-9449Y45682D01*
X-9849Y45282D01*
X-10249D01*
X-9849Y44882D01*
X-10249Y44482D01*
X-9849D01*
X-9449Y44082D01*
X9449Y27153D02*
X9849Y27553D01*
X10249D01*
X9849Y27953D01*
X10249Y28353D01*
X9849D01*
X9449Y28753D01*
X9049Y28353D01*
X8649D01*
X9049Y27953D01*
X8649Y27553D01*
X9049D01*
X9449Y27153D01*
X14364Y36017D02*
Y35617D01*
X15164D01*
Y36017D01*
X15564D01*
Y36817D01*
X15164D01*
Y37217D01*
X14364D01*
Y36817D01*
X13964D01*
Y36017D01*
X14364D01*
X9449Y44082D02*
X9849Y44482D01*
X10249D01*
X9849Y44882D01*
X10249Y45282D01*
X9849D01*
X9449Y45682D01*
X9049Y45282D01*
X8649D01*
X9049Y44882D01*
X8649Y44482D01*
X9049D01*
X9449Y44082D01*
X28728Y28728D02*
X29128D01*
X29528Y29128D01*
X29928Y28728D01*
X30328D01*
Y29128D01*
X29928Y29528D01*
X30328Y29928D01*
Y30328D01*
X29928D01*
X29528Y29928D01*
X29128Y30328D01*
X28728D01*
Y29928D01*
X29128Y29528D01*
X28728Y29128D01*
Y28728D01*
X-30328D02*
X-29928D01*
X-29528Y29128D01*
X-29128Y28728D01*
X-28728D01*
Y29128D01*
X-29128Y29528D01*
X-28728Y29928D01*
Y30328D01*
X-29128D01*
X-29528Y29928D01*
X-29928Y30328D01*
X-30328D01*
Y29928D01*
X-29928Y29528D01*
X-30328Y29128D01*
Y28728D01*
Y-30328D02*
X-29928D01*
X-29528Y-29928D01*
X-29128Y-30328D01*
X-28728D01*
Y-29928D01*
X-29128Y-29528D01*
X-28728Y-29128D01*
Y-28728D01*
X-29128D01*
X-29528Y-29128D01*
X-29928Y-28728D01*
X-30328D01*
Y-29128D01*
X-29928Y-29528D01*
X-30328Y-29928D01*
Y-30328D01*
X-9878Y17184D02*
X-9078Y17984D01*
X-8278Y17184D01*
X-9078Y16384D01*
X-9878Y17184D01*
X-6902D02*
X-6102Y17984D01*
X-5302Y17184D01*
X-6102Y16384D01*
X-6902Y17184D01*
X-12611Y7480D02*
X-11811Y8280D01*
X-11011Y7480D01*
X-11811Y6680D01*
X-12611Y7480D01*
X-44501Y4331D02*
X-43701Y5131D01*
X-42901Y4331D01*
X-43701Y3531D01*
X-44501Y4331D01*
X-5131Y29476D02*
Y31076D01*
X-3531D01*
Y29476D01*
X-5131D01*
X-4731Y29876D02*
Y30676D01*
X-3931D01*
Y29876D01*
X-4731D01*
X-4343Y24200D02*
Y25800D01*
X-2743D01*
Y24200D01*
X-4343D01*
X-3943Y24600D02*
Y25400D01*
X-3143D01*
Y24600D01*
X-3943D01*
X2743Y24200D02*
Y25800D01*
X4343D01*
Y24200D01*
X2743D01*
X3143Y24600D02*
Y25400D01*
X3943D01*
Y24600D01*
X3143D01*
X-2375Y24200D02*
Y25800D01*
X-775D01*
Y24200D01*
X-2375D01*
X-1975Y24600D02*
Y25400D01*
X-1175D01*
Y24600D01*
X-1975D01*
X775Y24200D02*
Y25800D01*
X2375D01*
Y24200D01*
X775D01*
X1175Y24600D02*
Y25400D01*
X1975D01*
Y24600D01*
X1175D01*
X1162Y7352D02*
X1962Y8152D01*
X2762Y7352D01*
X1962Y6552D01*
X1162Y7352D01*
X10156D02*
X10956Y8152D01*
X11756Y7352D01*
X10956Y6552D01*
X10156Y7352D01*
X-37414Y25591D02*
X-36614Y26391D01*
X-35814Y25591D01*
X-36614Y24791D01*
X-37414Y25591D01*
X-30015Y-36929D02*
X-29215Y-36129D01*
X-28415Y-36929D01*
X-29215Y-37729D01*
X-30015Y-36929D01*
X-38177Y-29426D02*
X-37377Y-28626D01*
X-36577Y-29426D01*
X-37377Y-30226D01*
X-38177Y-29426D01*
X24791Y-39342D02*
X25591Y-38541D01*
X26391Y-39342D01*
X25591Y-40141D01*
X24791Y-39342D01*
X3933Y-47244D02*
X4733Y-46444D01*
X5533Y-47244D01*
X4733Y-48044D01*
X3933Y-47244D01*
X21353Y39653D02*
X22153Y40453D01*
X22953Y39653D01*
X22153Y38853D01*
X21353Y39653D01*
X18853Y34653D02*
X19653Y35453D01*
X20453Y34653D01*
X19653Y33853D01*
X18853Y34653D01*
Y4653D02*
X19653Y5453D01*
X20453Y4653D01*
X19653Y3853D01*
X18853Y4653D01*
X21353Y-347D02*
X22153Y453D01*
X22953Y-347D01*
X22153Y-1147D01*
X21353Y-347D01*
X18853Y-5347D02*
X19653Y-4547D01*
X20453Y-5347D01*
X19653Y-6147D01*
X18853Y-5347D01*
Y-15347D02*
X19653Y-14547D01*
X20453Y-15347D01*
X19653Y-16147D01*
X18853Y-15347D01*
X13853Y44653D02*
X14653Y45453D01*
X15453Y44653D01*
X14653Y43853D01*
X13853Y44653D01*
X16353Y-347D02*
X17153Y453D01*
X17953Y-347D01*
X17153Y-1147D01*
X16353Y-347D01*
X11353D02*
X12153Y453D01*
X12953Y-347D01*
X12153Y-1147D01*
X11353Y-347D01*
X8853Y-15347D02*
X9653Y-14547D01*
X10453Y-15347D01*
X9653Y-16147D01*
X8853Y-15347D01*
X6353Y19653D02*
X7153Y20453D01*
X7953Y19653D01*
X7153Y18853D01*
X6353Y19653D01*
X3853Y-15347D02*
X4653Y-14547D01*
X5453Y-15347D01*
X4653Y-16147D01*
X3853Y-15347D01*
X1353Y-347D02*
X2153Y453D01*
X2953Y-347D01*
X2153Y-1147D01*
X1353Y-347D01*
X-1147Y-5347D02*
X-347Y-4547D01*
X453Y-5347D01*
X-347Y-6147D01*
X-1147Y-5347D01*
X-3647Y-347D02*
X-2847Y453D01*
X-2047Y-347D01*
X-2847Y-1147D01*
X-3647Y-347D01*
Y-10347D02*
X-2847Y-9547D01*
X-2047Y-10347D01*
X-2847Y-11147D01*
X-3647Y-10347D01*
Y-40347D02*
X-2847Y-39547D01*
X-2047Y-40347D01*
X-2847Y-41147D01*
X-3647Y-40347D01*
X-6147Y-45347D02*
X-5347Y-44547D01*
X-4547Y-45347D01*
X-5347Y-46147D01*
X-6147Y-45347D01*
X-8647Y-347D02*
X-7847Y453D01*
X-7047Y-347D01*
X-7847Y-1147D01*
X-8647Y-347D01*
Y-30347D02*
X-7847Y-29547D01*
X-7047Y-30347D01*
X-7847Y-31147D01*
X-8647Y-30347D01*
X-11147Y-45347D02*
X-10347Y-44547D01*
X-9547Y-45347D01*
X-10347Y-46147D01*
X-11147Y-45347D01*
X-16147Y44653D02*
X-15347Y45453D01*
X-14547Y44653D01*
X-15347Y43853D01*
X-16147Y44653D01*
Y4653D02*
X-15347Y5453D01*
X-14547Y4653D01*
X-15347Y3853D01*
X-16147Y4653D01*
X-13647Y-347D02*
X-12847Y453D01*
X-12047Y-347D01*
X-12847Y-1147D01*
X-13647Y-347D01*
X-21147Y34653D02*
X-20347Y35453D01*
X-19547Y34653D01*
X-20347Y33853D01*
X-21147Y34653D01*
Y-25347D02*
X-20347Y-24547D01*
X-19547Y-25347D01*
X-20347Y-26147D01*
X-21147Y-25347D01*
X-18647Y-40347D02*
X-17847Y-39547D01*
X-17047Y-40347D01*
X-17847Y-41147D01*
X-18647Y-40347D01*
X-23647D02*
X-22847Y-39547D01*
X-22047Y-40347D01*
X-22847Y-41147D01*
X-23647Y-40347D01*
X-43647Y-20347D02*
X-42847Y-19547D01*
X-42047Y-20347D01*
X-42847Y-21147D01*
X-43647Y-20347D01*
X3924Y-38976D02*
X4724Y-38176D01*
X5524Y-38976D01*
X4724Y-39776D01*
X3924Y-38976D01*
X-25603Y37008D02*
X-24803Y37808D01*
X-24003Y37008D01*
X-24803Y36208D01*
X-25603Y37008D01*
X-3202Y29476D02*
Y31076D01*
X-1602D01*
Y29476D01*
X-3202D01*
X-2802Y29876D02*
Y30676D01*
X-2002D01*
Y29876D01*
X-2802D01*
X-16154Y12598D02*
X-15354Y13398D01*
X-14554Y12598D01*
X-15354Y11798D01*
X-16154Y12598D01*
X-13792Y25591D02*
X-12992Y26390D01*
X-12192Y25591D01*
X-12992Y24791D01*
X-13792Y25591D01*
X-23438Y16929D02*
X-22638Y17729D01*
X-21838Y16929D01*
X-22638Y16129D01*
X-23438Y16929D01*
X-29147Y20079D02*
X-28346Y20879D01*
X-27547Y20079D01*
X-28346Y19279D01*
X-29147Y20079D01*
X3924Y-28740D02*
X4724Y-27940D01*
X5524Y-28740D01*
X4724Y-29540D01*
X3924Y-28740D01*
X14948D02*
X15748Y-27940D01*
X16548Y-28740D01*
X15748Y-29540D01*
X14948Y-28740D01*
X12192Y-19685D02*
X12992Y-18885D01*
X13792Y-19685D01*
X12992Y-20485D01*
X12192Y-19685D01*
X8649Y-39370D02*
X9449Y-38570D01*
X10249Y-39370D01*
X9449Y-40170D01*
X8649Y-39370D01*
X14948Y12992D02*
X15748Y13792D01*
X16548Y12992D01*
X15748Y12192D01*
X14948Y12992D01*
X20657D02*
X21457Y13792D01*
X22257Y12992D01*
X21457Y12192D01*
X20657Y12992D01*
X3924Y-17717D02*
X4724Y-16917D01*
X5524Y-17717D01*
X4724Y-18517D01*
X3924Y-17717D01*
X-7099Y-15453D02*
X-6299Y-14653D01*
X-5499Y-15453D01*
X-6299Y-16253D01*
X-7099Y-15453D01*
X17704Y-28740D02*
X18504Y-27940D01*
X19304Y-28740D01*
X18504Y-29540D01*
X17704Y-28740D01*
X13964Y-38917D02*
X14764Y-38117D01*
X15564Y-38917D01*
X14764Y-39717D01*
X13964Y-38917D01*
X18186Y-43887D02*
X18986Y-43088D01*
X19786Y-43887D01*
X18986Y-44688D01*
X18186Y-43887D01*
X8235Y-44094D02*
X9035Y-43295D01*
X9835Y-44094D01*
X9035Y-44894D01*
X8235Y-44094D01*
X13235D02*
X14035Y-43295D01*
X14835Y-44094D01*
X14035Y-44894D01*
X13235Y-44094D01*
X-5721Y36417D02*
X-4921Y37217D01*
X-4121Y36417D01*
X-4921Y35617D01*
X-5721Y36417D01*
X-3556Y36410D02*
X-2756Y37210D01*
X-1956Y36410D01*
X-2756Y35610D01*
X-3556Y36410D01*
X4712Y23228D02*
X5512Y24028D01*
X6312Y23228D01*
X5512Y22428D01*
X4712Y23228D01*
X3924Y20079D02*
X4724Y20879D01*
X5524Y20079D01*
X4724Y19279D01*
X3924Y20079D01*
X10834Y20295D02*
X11634Y21095D01*
X12434Y20295D01*
X11634Y19495D01*
X10834Y20295D01*
X8452D02*
X9252Y21095D01*
X10052Y20295D01*
X9252Y19495D01*
X8452Y20295D01*
X14948Y26575D02*
X15748Y27375D01*
X16548Y26575D01*
X15748Y25775D01*
X14948Y26575D01*
X5105Y30177D02*
X5906Y30977D01*
X6706Y30177D01*
X5906Y29377D01*
X5105Y30177D01*
X6680Y7874D02*
X7480Y8674D01*
X8280Y7874D01*
X7480Y7074D01*
X6680Y7874D01*
X1602Y47244D02*
X2402Y48044D01*
X3202Y47244D01*
X2402Y46444D01*
X1602Y47244D01*
X-3162D02*
X-2362Y48044D01*
X-1562Y47244D01*
X-2362Y46444D01*
X-3162Y47244D01*
X1602Y29476D02*
Y31076D01*
X3202D01*
Y29476D01*
X1602D01*
X2002Y29876D02*
Y30676D01*
X2802D01*
Y29876D01*
X2002D01*
X2054Y35610D02*
Y37210D01*
X3654D01*
Y35610D01*
X2054D01*
X2454Y36010D02*
Y36810D01*
X3254D01*
Y36010D01*
X2454D01*
X184Y41720D02*
Y43320D01*
X1784D01*
Y41720D01*
X184D01*
X584Y42120D02*
Y42920D01*
X1384D01*
Y42120D01*
X584D01*
X-3753Y41720D02*
Y43320D01*
X-2153D01*
Y41720D01*
X-3753D01*
X-3353Y42120D02*
Y42920D01*
X-2553D01*
Y42120D01*
X-3353D01*
X4121Y36417D02*
X4921Y37217D01*
X5721Y36417D01*
X4921Y35617D01*
X4121Y36417D01*
X-11627Y36614D02*
X-10827Y37414D01*
X-10027Y36614D01*
X-10827Y35814D01*
X-11627Y36614D01*
X10027Y36417D02*
X10827Y37217D01*
X11627Y36417D01*
X10827Y35617D01*
X10027Y36417D01*
X-40603Y6063D02*
X-39803Y6863D01*
X-39003Y6063D01*
X-39803Y5263D01*
X-40603Y6063D01*
X-16351Y-5118D02*
X-15551Y-4318D01*
X-14751Y-5118D01*
X-15551Y-5918D01*
X-16351Y-5118D01*
X-26391Y-2657D02*
X-25591Y-1857D01*
X-24791Y-2657D01*
X-25591Y-3458D01*
X-26391Y-2657D01*
X-25997Y-22441D02*
X-25197Y-21641D01*
X-24397Y-22441D01*
X-25197Y-23241D01*
X-25997Y-22441D01*
X24003Y17003D02*
X24803Y17803D01*
X25603Y17003D01*
X24803Y16203D01*
X24003Y17003D01*
Y-28740D02*
X24803Y-27940D01*
X25603Y-28740D01*
X24803Y-29540D01*
X24003Y-28740D01*
X-4343Y7480D02*
X-3543Y8280D01*
X-2743Y7480D01*
X-3543Y6680D01*
X-4343Y7480D01*
X-6706D02*
X-5906Y8280D01*
X-5105Y7480D01*
X-5906Y6680D01*
X-6706Y7480D01*
X20657Y26575D02*
X21457Y27375D01*
X22257Y26575D01*
X21457Y25775D01*
X20657Y26575D01*
X11227Y-8858D02*
X12027Y-8058D01*
X12828Y-8858D01*
X12027Y-9658D01*
X11227Y-8858D01*
X-800Y-12205D02*
X0Y-11405D01*
X800Y-12205D01*
X0Y-13005D01*
X-800Y-12205D01*
X-40761Y-21457D02*
X-39961Y-20657D01*
X-39161Y-21457D01*
X-39961Y-22257D01*
X-40761Y-21457D01*
X-37217Y-6693D02*
X-36417Y-5893D01*
X-35617Y-6693D01*
X-36417Y-7493D01*
X-37217Y-6693D01*
Y-4331D02*
X-36417Y-3531D01*
X-35617Y-4331D01*
X-36417Y-5131D01*
X-37217Y-4331D01*
X-27020Y-17165D02*
X-26221Y-16365D01*
X-25420Y-17165D01*
X-26221Y-17965D01*
X-27020Y-17165D01*
X-44501Y-14961D02*
X-43701Y-14161D01*
X-42901Y-14961D01*
X-43701Y-15761D01*
X-44501Y-14961D01*
Y-12598D02*
X-43701Y-11798D01*
X-42901Y-12598D01*
X-43701Y-13398D01*
X-44501Y-12598D01*
X-30328Y-19685D02*
X-29528Y-18885D01*
X-28728Y-19685D01*
X-29528Y-20485D01*
X-30328Y-19685D01*
Y-17323D02*
X-29528Y-16523D01*
X-28728Y-17323D01*
X-29528Y-18123D01*
X-30328Y-17323D01*
X-47650Y-1575D02*
X-46850Y-775D01*
X-46050Y-1575D01*
X-46850Y-2375D01*
X-47650Y-1575D01*
X-46855Y7484D02*
X-46055Y8284D01*
X-45255Y7484D01*
X-46055Y6684D01*
X-46855Y7484D01*
X-44501Y1969D02*
X-43701Y2768D01*
X-42901Y1969D01*
X-43701Y1168D01*
X-44501Y1969D01*
X-16548Y-14173D02*
X-15748Y-13373D01*
X-14948Y-14173D01*
X-15748Y-14973D01*
X-16548Y-14173D01*
X-26391Y-6594D02*
X-25591Y-5794D01*
X-24791Y-6594D01*
X-25591Y-7395D01*
X-26391Y-6594D01*
X-42532Y-17165D02*
X-41732Y-16365D01*
X-40932Y-17165D01*
X-41732Y-17965D01*
X-42532Y-17165D01*
X-34524Y-4331D02*
X-33724Y-3531D01*
X-32924Y-4331D01*
X-33724Y-5131D01*
X-34524Y-4331D01*
Y-6693D02*
X-33724Y-5893D01*
X-32924Y-6693D01*
X-33724Y-7493D01*
X-34524Y-6693D01*
X-40048D02*
X-39248Y-5893D01*
X-38448Y-6693D01*
X-39248Y-7493D01*
X-40048Y-6693D01*
Y-4331D02*
X-39248Y-3531D01*
X-38448Y-4331D01*
X-39248Y-5131D01*
X-40048Y-4331D01*
X-26627Y3150D02*
X-25827Y3950D01*
X-25027Y3150D01*
X-25827Y2350D01*
X-26627Y3150D01*
X-19304Y32677D02*
X-18504Y33477D01*
X-17704Y32677D01*
X-18504Y31877D01*
X-19304Y32677D01*
X-19895Y16929D02*
X-19094Y17729D01*
X-18294Y16929D01*
X-19094Y16129D01*
X-19895Y16929D01*
X-17335Y14567D02*
X-16535Y15367D01*
X-15735Y14567D01*
X-16535Y13767D01*
X-17335Y14567D01*
X-26784Y38976D02*
X-25984Y39776D01*
X-25184Y38976D01*
X-25984Y38176D01*
X-26784Y38976D01*
D122*
X-33846Y18701D02*
G03*
X-33846Y18701I-800J0D01*
G01*
Y12795D02*
G03*
X-33846Y12795I-800J0D01*
G01*
M02*
