G04*
G04 #@! TF.GenerationSoftware,Altium Limited,Altium Designer,19.0.14 (431)*
G04*
G04 Layer_Physical_Order=1*
G04 Layer_Color=255*
%FSLAX25Y25*%
%MOIN*%
G70*
G01*
G75*
%ADD14C,0.00050*%
%ADD15C,0.01968*%
%ADD16O,0.03150X0.00984*%
%ADD17O,0.00984X0.03150*%
%ADD18R,0.10551X0.10551*%
%ADD19R,0.01968X0.04724*%
%ADD20R,0.03543X0.06299*%
%ADD21R,0.01968X0.06299*%
%ADD22R,0.06299X0.01968*%
%ADD23R,0.02323X0.02441*%
G04:AMPARAMS|DCode=24|XSize=40.55mil|YSize=19.68mil|CornerRadius=0mil|HoleSize=0mil|Usage=FLASHONLY|Rotation=141.000|XOffset=0mil|YOffset=0mil|HoleType=Round|Shape=Rectangle|*
%AMROTATEDRECTD24*
4,1,4,0.02195,-0.00511,0.00956,-0.02041,-0.02195,0.00511,-0.00956,0.02041,0.02195,-0.00511,0.0*
%
%ADD24ROTATEDRECTD24*%

%ADD25R,0.01181X0.03347*%
%ADD26R,0.03228X0.02165*%
G04:AMPARAMS|DCode=27|XSize=40.55mil|YSize=19.68mil|CornerRadius=0mil|HoleSize=0mil|Usage=FLASHONLY|Rotation=219.000|XOffset=0mil|YOffset=0mil|HoleType=Round|Shape=Rectangle|*
%AMROTATEDRECTD27*
4,1,4,0.00956,0.02041,0.02195,0.00511,-0.00956,-0.02041,-0.02195,-0.00511,0.00956,0.02041,0.0*
%
%ADD27ROTATEDRECTD27*%

%ADD28R,0.02441X0.02598*%
%ADD29R,0.01575X0.01181*%
%ADD30R,0.02598X0.02441*%
%ADD54C,0.03398*%
%ADD55C,0.00600*%
%ADD56C,0.01000*%
%ADD57C,0.01500*%
%ADD58C,0.00700*%
%ADD59C,0.00701*%
%ADD60C,0.02000*%
%ADD61R,0.05315X0.05315*%
%ADD62C,0.05315*%
%ADD63C,0.04331*%
%ADD64R,0.04331X0.04331*%
%ADD65C,0.05118*%
%ADD66C,0.01600*%
%ADD67C,0.01400*%
G36*
X5720Y48332D02*
X9495Y47734D01*
X13211Y46842D01*
X16845Y45662D01*
X20376Y44199D01*
X23781Y42464D01*
X26575Y40752D01*
Y35212D01*
X25952Y34879D01*
X24976Y34079D01*
X24176Y33103D01*
X23581Y31991D01*
X23215Y30783D01*
X23091Y29528D01*
X23215Y28272D01*
X23581Y27064D01*
X24176Y25952D01*
X24976Y24976D01*
X25952Y24176D01*
X26575Y23843D01*
Y-3434D01*
X26575Y-4134D01*
X14764D01*
Y-18701D01*
X13859D01*
X13499Y-18461D01*
X12992Y-18360D01*
X12485Y-18461D01*
X12055Y-18748D01*
X11768Y-19178D01*
X11667Y-19685D01*
X11702Y-19863D01*
X11237Y-20563D01*
X8347D01*
Y-13386D01*
X8281Y-13054D01*
X8093Y-12773D01*
X5591Y-10271D01*
Y-9323D01*
X6291Y-9086D01*
X6367Y-9184D01*
X6923Y-9612D01*
X7572Y-9880D01*
X8268Y-9972D01*
X8963Y-9880D01*
X9612Y-9612D01*
X10169Y-9184D01*
X10596Y-8628D01*
X10864Y-7979D01*
X10956Y-7283D01*
X10864Y-6588D01*
X10596Y-5939D01*
X10169Y-5382D01*
X9612Y-4955D01*
X8963Y-4687D01*
X8268Y-4595D01*
X7636Y-4678D01*
X7580Y-4626D01*
X7438Y-3886D01*
X22070Y10746D01*
X22257Y11027D01*
X22323Y11358D01*
Y12008D01*
X22394Y12055D01*
X22681Y12485D01*
X22782Y12992D01*
X22681Y13499D01*
X22394Y13929D01*
X21964Y14217D01*
X21457Y14318D01*
X20949Y14217D01*
X20519Y13929D01*
X20232Y13499D01*
X20131Y12992D01*
X20232Y12485D01*
X20519Y12055D01*
X20282Y11410D01*
X17242Y8369D01*
X17108Y8400D01*
X16597Y8714D01*
X16615Y8805D01*
Y12008D01*
X16685Y12055D01*
X16973Y12485D01*
X17074Y12992D01*
X16973Y13499D01*
X16685Y13929D01*
X16255Y14217D01*
X15748Y14318D01*
X15241Y14217D01*
X15176Y14174D01*
X14476Y14548D01*
Y15526D01*
X14551Y16083D01*
X15072Y16304D01*
X15146Y16318D01*
X15637Y16646D01*
X15965Y17137D01*
X16080Y17717D01*
X15965Y18296D01*
X15637Y18787D01*
X15146Y19115D01*
X14567Y19230D01*
X13988Y19115D01*
X13497Y18787D01*
X13169Y18296D01*
X13054Y17717D01*
X13101Y17477D01*
X12429Y16805D01*
X12241Y16524D01*
X12234Y16488D01*
X11700Y16183D01*
X10997Y16418D01*
X10976Y16524D01*
X10788Y16805D01*
X10116Y17477D01*
X10164Y17717D01*
X10048Y18296D01*
X9720Y18787D01*
X9229Y19115D01*
X8650Y19230D01*
X8071Y19115D01*
X7580Y18787D01*
X7252Y18296D01*
X7137Y17717D01*
X7252Y17137D01*
X7510Y16751D01*
X7391Y16342D01*
X7211Y16051D01*
X-13295D01*
Y8752D01*
X-13295D01*
X-12992Y8052D01*
X-13036Y7988D01*
X-13137Y7480D01*
X-13036Y6973D01*
X-12748Y6543D01*
X-12318Y6256D01*
X-11811Y6155D01*
X-11304Y6256D01*
X-10874Y6543D01*
X-10587Y6973D01*
X-10486Y7480D01*
X-10587Y7988D01*
X-10629Y8052D01*
X-10312Y8752D01*
X-5099D01*
X-4725Y8052D01*
X-4768Y7988D01*
X-4869Y7480D01*
X-4768Y6973D01*
X-4481Y6543D01*
X-4050Y6256D01*
X-3543Y6155D01*
X-3036Y6256D01*
X-2606Y6543D01*
X-2319Y6973D01*
X-2218Y7480D01*
X-2319Y7988D01*
X-2362Y8052D01*
X-1988Y8752D01*
X5726D01*
X6190Y8052D01*
X6155Y7874D01*
X6256Y7367D01*
X6543Y6937D01*
X6973Y6650D01*
X7480Y6549D01*
X7988Y6650D01*
X8418Y6937D01*
X8705Y7367D01*
X8806Y7874D01*
X8770Y8052D01*
X9235Y8752D01*
X13555D01*
X13823Y8105D01*
X1356Y-4362D01*
X1168Y-4643D01*
X1102Y-4975D01*
Y-20563D01*
X-15926D01*
X-16051Y-20563D01*
X-16626Y-20261D01*
Y-15983D01*
X-16556Y-15873D01*
X-16095Y-15510D01*
X-15926Y-15463D01*
X-15748Y-15499D01*
X-15241Y-15398D01*
X-14811Y-15111D01*
X-14524Y-14681D01*
X-14423Y-14173D01*
X-14524Y-13666D01*
X-14811Y-13236D01*
X-15241Y-12949D01*
X-15748Y-12848D01*
X-15926Y-12883D01*
X-16565Y-12459D01*
X-16626Y-12363D01*
Y-7390D01*
Y-4634D01*
Y-1878D01*
Y878D01*
Y3634D01*
Y6390D01*
Y9358D01*
X-23468D01*
X-23925Y9358D01*
X-24168Y9958D01*
Y15619D01*
X-23882Y15798D01*
X-23468Y15920D01*
X-23145Y15705D01*
X-22638Y15604D01*
X-22131Y15705D01*
X-21701Y15992D01*
X-21413Y16422D01*
X-21312Y16929D01*
X-21413Y17436D01*
X-21443Y17481D01*
X-21069Y18181D01*
X-1200D01*
X-505Y18272D01*
X142Y18541D01*
X698Y18967D01*
X2449Y20718D01*
X2875Y21274D01*
X3144Y21921D01*
X3235Y22616D01*
Y23975D01*
X3144Y24670D01*
X2875Y25318D01*
X2449Y25874D01*
X1893Y26301D01*
X1245Y26569D01*
X550Y26660D01*
X0Y26588D01*
X-550Y26660D01*
X-1245Y26569D01*
X-1893Y26301D01*
X-2449Y25874D01*
X-2875Y25318D01*
X-3144Y24670D01*
X-3146Y24651D01*
X-11214D01*
X-11339Y24749D01*
X-11714Y25351D01*
X-11667Y25591D01*
X-11767Y26098D01*
X-12055Y26528D01*
X-12485Y26815D01*
X-12992Y26916D01*
X-13499Y26815D01*
X-13929Y26528D01*
X-14217Y26098D01*
X-14318Y25591D01*
X-14270Y25351D01*
X-14645Y24749D01*
X-14770Y24651D01*
X-24159D01*
X-24359Y24625D01*
X-24725Y25283D01*
X-24176Y25952D01*
X-23581Y27064D01*
X-23215Y28272D01*
X-23091Y29528D01*
X-23215Y30783D01*
X-23581Y31991D01*
X-24176Y33103D01*
X-24976Y34079D01*
X-25952Y34879D01*
X-27064Y35474D01*
X-28272Y35840D01*
X-29528Y35964D01*
X-30783Y35840D01*
X-31991Y35474D01*
X-32681Y35105D01*
X-33103Y35673D01*
X-33037Y35739D01*
X-30131Y38221D01*
X-27727Y39968D01*
X-27222Y39496D01*
X-27210Y39478D01*
X-27310Y38976D01*
X-27209Y38469D01*
X-26921Y38039D01*
X-26491Y37752D01*
X-25984Y37651D01*
X-25477Y37752D01*
X-25047Y38039D01*
X-24760Y38469D01*
X-24688Y38831D01*
X-24632Y38887D01*
X-24063Y39205D01*
X-20622D01*
Y42803D01*
X-21616D01*
X-21780Y43484D01*
X-20376Y44199D01*
X-16845Y45662D01*
X-13211Y46842D01*
X-9495Y47734D01*
X-5720Y48332D01*
X-1911Y48632D01*
X1911D01*
X5720Y48332D01*
D02*
G37*
G36*
X-35105Y32681D02*
X-35474Y31991D01*
X-35840Y30783D01*
X-35964Y29528D01*
X-35840Y28272D01*
X-35474Y27064D01*
X-34879Y25952D01*
X-34079Y24976D01*
X-33103Y24176D01*
X-31991Y23581D01*
X-30783Y23215D01*
X-29528Y23091D01*
X-28272Y23215D01*
X-27448Y23465D01*
X-27077Y22846D01*
X-29851Y20071D01*
X-30278Y19515D01*
X-30546Y18867D01*
X-30638Y18172D01*
Y9691D01*
X-32355D01*
X-32593Y10391D01*
X-32394Y10543D01*
X-31888Y11203D01*
X-31569Y11971D01*
X-31461Y12795D01*
X-31569Y13620D01*
X-31888Y14388D01*
X-32394Y15047D01*
X-33053Y15553D01*
X-33821Y15871D01*
X-34646Y15980D01*
X-35470Y15871D01*
X-36238Y15553D01*
X-36898Y15047D01*
X-37404Y14388D01*
X-37722Y13620D01*
X-37830Y12795D01*
X-37722Y11971D01*
X-37404Y11203D01*
X-36898Y10543D01*
X-36526Y10258D01*
X-36516Y10214D01*
X-36642Y9488D01*
X-37021Y9331D01*
X-37577Y8904D01*
X-38866Y7615D01*
X-39293Y7059D01*
X-39561Y6412D01*
X-39652Y5717D01*
Y4007D01*
X-39757Y3986D01*
X-40085Y3766D01*
X-40623D01*
X-40951Y3986D01*
X-41339Y4063D01*
X-41726Y3986D01*
X-42054Y3766D01*
X-42273Y3438D01*
X-42305Y3281D01*
X-42976Y3084D01*
X-43035Y3087D01*
X-43194Y3193D01*
X-43701Y3294D01*
X-44208Y3193D01*
X-44515Y2988D01*
X-46350D01*
Y3065D01*
X-48026D01*
X-48501Y3579D01*
X-48332Y5720D01*
X-47734Y9495D01*
X-46842Y13211D01*
X-45662Y16845D01*
X-44199Y20376D01*
X-42464Y23781D01*
X-40467Y27039D01*
X-38221Y30131D01*
X-35739Y33037D01*
X-35673Y33103D01*
X-35105Y32681D01*
D02*
G37*
G36*
X-32508Y2392D02*
Y886D01*
X-32431Y499D01*
X-32211Y170D01*
X-31883Y-49D01*
X-31514Y-122D01*
X-31494Y-128D01*
X-31214Y-407D01*
X-30935Y-687D01*
X-30929Y-706D01*
X-30856Y-1076D01*
X-30637Y-1404D01*
Y-1942D01*
X-30856Y-2270D01*
X-30933Y-2657D01*
X-30856Y-3045D01*
X-30637Y-3373D01*
Y-3911D01*
X-30856Y-4239D01*
X-30933Y-4626D01*
X-30856Y-5013D01*
X-30637Y-5341D01*
Y-5879D01*
X-30856Y-6207D01*
X-30933Y-6594D01*
X-30856Y-6982D01*
X-30637Y-7310D01*
Y-7848D01*
X-30856Y-8176D01*
X-30933Y-8563D01*
X-30856Y-8950D01*
X-30637Y-9278D01*
Y-9816D01*
X-30856Y-10144D01*
X-30929Y-10514D01*
X-30935Y-10533D01*
X-31214Y-10813D01*
X-31494Y-11093D01*
X-31514Y-11098D01*
X-31883Y-11172D01*
X-32211Y-11391D01*
X-32749D01*
X-33077Y-11172D01*
X-33465Y-11095D01*
X-33852Y-11172D01*
X-34180Y-11391D01*
X-34718D01*
X-35046Y-11172D01*
X-35433Y-11095D01*
X-35820Y-11172D01*
X-36148Y-11391D01*
X-36686D01*
X-37014Y-11172D01*
X-37402Y-11095D01*
X-37789Y-11172D01*
X-38117Y-11391D01*
X-38655D01*
X-38983Y-11172D01*
X-39370Y-11095D01*
X-39757Y-11172D01*
X-40085Y-11391D01*
X-40623D01*
X-40951Y-11172D01*
X-41321Y-11098D01*
X-41340Y-11093D01*
X-41620Y-10813D01*
X-41900Y-10533D01*
X-41905Y-10514D01*
X-41979Y-10144D01*
X-42198Y-9816D01*
Y-9278D01*
X-41979Y-8950D01*
X-41902Y-8563D01*
X-41979Y-8176D01*
X-42198Y-7848D01*
Y-7310D01*
X-41979Y-6982D01*
X-41902Y-6594D01*
X-41979Y-6207D01*
X-42198Y-5879D01*
Y-5341D01*
X-41979Y-5013D01*
X-41902Y-4626D01*
X-41979Y-4239D01*
X-42198Y-3911D01*
Y-3373D01*
X-41979Y-3045D01*
X-41902Y-2657D01*
X-41979Y-2270D01*
X-42198Y-1942D01*
Y-1404D01*
X-41979Y-1076D01*
X-41905Y-706D01*
X-41900Y-687D01*
X-41620Y-407D01*
X-41340Y-128D01*
X-41321Y-122D01*
X-40951Y-49D01*
X-40623Y170D01*
X-40085D01*
X-39757Y-49D01*
X-39370Y-126D01*
X-38983Y-49D01*
X-38655Y170D01*
X-38117D01*
X-37789Y-49D01*
X-37402Y-126D01*
X-37014Y-49D01*
X-36686Y170D01*
X-36148D01*
X-35820Y-49D01*
X-35433Y-126D01*
X-35046Y-49D01*
X-34718Y170D01*
X-34499Y499D01*
X-34422Y886D01*
Y1343D01*
X-33969Y1691D01*
X-33542Y2247D01*
X-33274Y2894D01*
X-33258Y3010D01*
X-33208Y3016D01*
X-32508Y2392D01*
D02*
G37*
G36*
X-24103Y6250D02*
X-23925Y6157D01*
Y3634D01*
Y878D01*
Y-1550D01*
X-24625Y-1762D01*
X-24653Y-1720D01*
X-25083Y-1433D01*
X-25591Y-1332D01*
X-26098Y-1433D01*
X-26315Y-1578D01*
X-26816Y-1081D01*
X-26821Y-1074D01*
X-26744Y-689D01*
X-26821Y-302D01*
X-27041Y26D01*
X-27369Y246D01*
X-27756Y323D01*
X-29921D01*
X-30485Y886D01*
Y3051D01*
X-30346Y3220D01*
X-28759D01*
X-28064Y3312D01*
X-27417Y3580D01*
X-26861Y4007D01*
X-24954Y5913D01*
X-24625Y6342D01*
X-24103Y6250D01*
D02*
G37*
G36*
X-47788Y-2512D02*
X-47358Y-2799D01*
X-46996Y-2871D01*
X-46489Y-3378D01*
X-46325Y-3488D01*
X-46064Y-4117D01*
X-46033Y-4338D01*
X-46090Y-4626D01*
X-46013Y-5013D01*
X-45794Y-5341D01*
Y-5879D01*
X-46013Y-6207D01*
X-46090Y-6594D01*
X-46013Y-6982D01*
X-45794Y-7310D01*
Y-7848D01*
X-46013Y-8176D01*
X-46090Y-8563D01*
X-46013Y-8950D01*
X-45794Y-9278D01*
Y-9816D01*
X-46013Y-10144D01*
X-46090Y-10531D01*
X-46013Y-10919D01*
X-45794Y-11247D01*
X-45466Y-11466D01*
X-45079Y-11543D01*
X-42913D01*
X-42350Y-12106D01*
Y-14272D01*
X-42273Y-14659D01*
X-42054Y-14987D01*
X-41726Y-15206D01*
X-41339Y-15283D01*
X-40951Y-15206D01*
X-40623Y-14987D01*
X-40085D01*
X-39757Y-15206D01*
X-39370Y-15283D01*
X-38983Y-15206D01*
X-38655Y-14987D01*
X-38117D01*
X-37789Y-15206D01*
X-37377Y-15383D01*
X-37232Y-15963D01*
Y-18886D01*
X-33634D01*
Y-15963D01*
X-33489Y-15383D01*
X-33077Y-15206D01*
X-32749Y-14987D01*
X-32211D01*
X-31883Y-15206D01*
X-31496Y-15283D01*
X-31109Y-15206D01*
X-30781Y-14987D01*
X-30562Y-14659D01*
X-30485Y-14272D01*
Y-12106D01*
X-29921Y-11543D01*
X-27756D01*
X-27369Y-11466D01*
X-27041Y-11247D01*
X-26821Y-10919D01*
X-26744Y-10531D01*
X-26821Y-10144D01*
X-26831Y-10130D01*
X-26457Y-9430D01*
X-23925D01*
Y-12902D01*
Y-15657D01*
Y-18413D01*
Y-21169D01*
X-16751D01*
X-16626Y-21169D01*
X-16051Y-21472D01*
Y-27862D01*
X-16051D01*
X-15949Y-28108D01*
X-16393Y-28661D01*
X-20448D01*
X-20583Y-28457D01*
X-21074Y-28129D01*
X-21654Y-28014D01*
X-22233Y-28129D01*
X-22507Y-28313D01*
X-22729Y-28300D01*
X-23153Y-28145D01*
X-23281Y-28052D01*
X-23581Y-27064D01*
X-24176Y-25952D01*
X-24976Y-24976D01*
X-25952Y-24176D01*
X-27064Y-23581D01*
X-28272Y-23215D01*
X-29528Y-23091D01*
X-30783Y-23215D01*
X-31991Y-23581D01*
X-33103Y-24176D01*
X-34079Y-24976D01*
X-34879Y-25952D01*
X-35474Y-27064D01*
X-35840Y-28272D01*
X-35964Y-29528D01*
X-35840Y-30783D01*
X-35474Y-31991D01*
X-35105Y-32681D01*
X-35673Y-33103D01*
X-35739Y-33037D01*
X-38221Y-30131D01*
X-40467Y-27040D01*
X-42464Y-23781D01*
X-44199Y-20376D01*
X-45662Y-16845D01*
X-46842Y-13211D01*
X-47734Y-9495D01*
X-48332Y-5720D01*
X-48579Y-2588D01*
X-47895Y-2351D01*
X-47788Y-2512D01*
D02*
G37*
G36*
X1378Y-29724D02*
X882Y-30217D01*
X-3721D01*
X-4053Y-30283D01*
X-4334Y-30471D01*
X-7153Y-33290D01*
X-7631Y-33092D01*
X-8327Y-33001D01*
X-9023Y-33092D01*
X-9671Y-33361D01*
X-10228Y-33788D01*
X-10655Y-34345D01*
X-10924Y-34993D01*
X-11015Y-35689D01*
X-10924Y-36385D01*
X-10655Y-37033D01*
X-10228Y-37590D01*
X-9994Y-37769D01*
X-9986Y-37784D01*
Y-38594D01*
X-9994Y-38609D01*
X-10228Y-38788D01*
X-10655Y-39345D01*
X-10924Y-39993D01*
X-11015Y-40689D01*
X-10924Y-41385D01*
X-10655Y-42033D01*
X-10228Y-42590D01*
X-9671Y-43017D01*
X-9023Y-43286D01*
X-8327Y-43377D01*
X-7631Y-43286D01*
X-6983Y-43017D01*
X-6426Y-42590D01*
X-5999Y-42033D01*
X-5730Y-41385D01*
X-5638Y-40689D01*
X-5730Y-39993D01*
X-5928Y-39516D01*
X-1553Y-35141D01*
X-1085Y-35300D01*
X-867Y-35445D01*
X-786Y-36066D01*
X-517Y-36714D01*
X-395Y-36873D01*
Y-41867D01*
X-517Y-42026D01*
X-786Y-42674D01*
X-877Y-43370D01*
X-786Y-44066D01*
X-517Y-44714D01*
X-395Y-44873D01*
Y-45641D01*
X392D01*
X467Y-45698D01*
X1115Y-45967D01*
X1811Y-46058D01*
X2507Y-45967D01*
X3155Y-45698D01*
X3230Y-45641D01*
X5302D01*
X5751Y-45827D01*
X6449Y-45919D01*
X6780Y-46350D01*
X7441Y-46857D01*
X8210Y-47175D01*
X8396Y-47200D01*
X8405Y-47907D01*
X5720Y-48332D01*
X1911Y-48632D01*
X-1911D01*
X-5720Y-48332D01*
X-9495Y-47734D01*
X-13211Y-46842D01*
X-16845Y-45662D01*
X-20376Y-44199D01*
X-23781Y-42464D01*
X-27040Y-40467D01*
X-30131Y-38221D01*
X-33037Y-35739D01*
X-33103Y-35673D01*
X-32681Y-35105D01*
X-31991Y-35474D01*
X-30783Y-35840D01*
X-29528Y-35964D01*
X-28272Y-35840D01*
X-27064Y-35474D01*
X-25952Y-34879D01*
X-24976Y-34079D01*
X-24176Y-33103D01*
X-23581Y-31991D01*
X-23281Y-31003D01*
X-23153Y-30910D01*
X-22729Y-30755D01*
X-22507Y-30742D01*
X-22233Y-30926D01*
X-21654Y-31041D01*
X-21074Y-30926D01*
X-20583Y-30598D01*
X-20448Y-30394D01*
X-18930D01*
X-18836Y-31089D01*
X-19117Y-31277D01*
X-21414Y-33574D01*
X-21654Y-33526D01*
X-22233Y-33641D01*
X-22724Y-33969D01*
X-23052Y-34460D01*
X-23167Y-35039D01*
X-23052Y-35618D01*
X-22724Y-36110D01*
X-22233Y-36437D01*
X-21654Y-36553D01*
X-21074Y-36437D01*
X-20583Y-36110D01*
X-20255Y-35618D01*
X-20140Y-35039D01*
X-20188Y-34799D01*
X-18145Y-32756D01*
X-14173D01*
X-13842Y-32690D01*
X-13560Y-32503D01*
X-11198Y-30140D01*
X-11010Y-29859D01*
X-10944Y-29528D01*
Y-27862D01*
X1378D01*
Y-29724D01*
D02*
G37*
G36*
X26575Y-20669D02*
X26575Y-21369D01*
Y-40752D01*
X25019Y-41706D01*
X24408Y-41364D01*
Y-40065D01*
X24499Y-39370D01*
X24408Y-38675D01*
Y-33042D01*
X19784D01*
X19516Y-32395D01*
X21873Y-30039D01*
X22061Y-29758D01*
X22127Y-29426D01*
Y-27862D01*
X22744D01*
Y-20669D01*
X26575D01*
D02*
G37*
%LPC*%
G36*
X984Y43743D02*
X516Y43650D01*
X119Y43385D01*
X-146Y42988D01*
X-239Y42520D01*
X-577Y42117D01*
X-1391D01*
X-1729Y42520D01*
X-1822Y42988D01*
X-2088Y43385D01*
X-2485Y43650D01*
X-2953Y43743D01*
X-3421Y43650D01*
X-3818Y43385D01*
X-4083Y42988D01*
X-4176Y42520D01*
X-4732Y41858D01*
X-9949D01*
Y37512D01*
X-6595D01*
X-6357Y37201D01*
X-6168Y36812D01*
X-6247Y36417D01*
X-6168Y36023D01*
X-6357Y35634D01*
X-6595Y35323D01*
X-9949D01*
Y30976D01*
X-4154D01*
X-3625Y30276D01*
X-3625Y30276D01*
X-3532Y29807D01*
X-3267Y29410D01*
X-2870Y29145D01*
X-2402Y29052D01*
X-1933Y29145D01*
X-1536Y29410D01*
X-1503Y29460D01*
X-1336D01*
X-1336Y29460D01*
X-1024Y29522D01*
X-759Y29699D01*
X-408Y30050D01*
X-408Y30050D01*
X-389Y30078D01*
X-367Y30086D01*
X367D01*
X389Y30078D01*
X408Y30050D01*
X759Y29699D01*
X759Y29699D01*
X1024Y29522D01*
X1336Y29460D01*
X1336Y29460D01*
X1503D01*
X1536Y29410D01*
X1933Y29145D01*
X2402Y29052D01*
X2870Y29145D01*
X3267Y29410D01*
X3532Y29807D01*
X3625Y30276D01*
X3625Y30276D01*
X4154Y30976D01*
X9949D01*
Y35323D01*
X6595D01*
X6357Y35634D01*
X6168Y36023D01*
X6247Y36417D01*
X6168Y36812D01*
X6357Y37201D01*
X6595Y37512D01*
X9949D01*
Y41858D01*
X2763D01*
X2208Y42520D01*
X2115Y42988D01*
X1849Y43385D01*
X1453Y43650D01*
X984Y43743D01*
D02*
G37*
G36*
X-13937Y38091D02*
X-15590D01*
X-16231Y37964D01*
X-16774Y37601D01*
X-17137Y37058D01*
X-17264Y36417D01*
X-17137Y35777D01*
X-16774Y35234D01*
X-16231Y34871D01*
X-15590Y34743D01*
X-13937D01*
X-13296Y34871D01*
X-12753Y35234D01*
X-12391Y35777D01*
X-12263Y36417D01*
X-12391Y37058D01*
X-12753Y37601D01*
X-13296Y37964D01*
X-13937Y38091D01*
D02*
G37*
G36*
X14764Y38252D02*
X14062Y38112D01*
X13467Y37714D01*
X13069Y37119D01*
X12929Y36417D01*
X13069Y35715D01*
X13467Y35120D01*
X14062Y34723D01*
X14764Y34583D01*
X15466Y34723D01*
X16061Y35120D01*
X16459Y35715D01*
X16598Y36417D01*
X16459Y37119D01*
X16061Y37714D01*
X15466Y38112D01*
X14764Y38252D01*
D02*
G37*
G36*
X9973Y24555D02*
X9272Y24555D01*
X6390D01*
Y24555D01*
X5690Y24518D01*
X5512Y24554D01*
X5005Y24453D01*
X4575Y24166D01*
X4287Y23736D01*
X4186Y23228D01*
X4287Y22721D01*
X4575Y22291D01*
X4880Y22087D01*
X4733Y21444D01*
X4714Y21402D01*
X4217Y21303D01*
X3787Y21016D01*
X3500Y20586D01*
X3399Y20079D01*
X3500Y19571D01*
X3787Y19141D01*
X4217Y18854D01*
X4724Y18753D01*
X5232Y18854D01*
X5662Y19141D01*
X5949Y19571D01*
X6050Y20079D01*
X5996Y20350D01*
X6179Y20847D01*
X6417Y21093D01*
X6946Y21114D01*
X7060Y21114D01*
X9272D01*
X9713Y21114D01*
X10002Y21057D01*
X10332Y20414D01*
X10308Y20295D01*
X10409Y19788D01*
X10697Y19358D01*
X11127Y19071D01*
X11634Y18970D01*
X12141Y19071D01*
X12571Y19358D01*
X12858Y19788D01*
X12959Y20295D01*
X12936Y20414D01*
X13295Y21114D01*
X13295D01*
Y24555D01*
X9973Y24555D01*
D02*
G37*
G36*
X-8268Y-4595D02*
X-8963Y-4687D01*
X-9612Y-4955D01*
X-10169Y-5382D01*
X-10596Y-5939D01*
X-10864Y-6588D01*
X-10956Y-7283D01*
X-10864Y-7979D01*
X-10596Y-8628D01*
X-10169Y-9184D01*
X-9612Y-9612D01*
X-8963Y-9880D01*
X-8268Y-9972D01*
X-7572Y-9880D01*
X-6923Y-9612D01*
X-6367Y-9184D01*
X-5940Y-8628D01*
X-5671Y-7979D01*
X-5579Y-7283D01*
X-5671Y-6588D01*
X-5940Y-5939D01*
X-6367Y-5382D01*
X-6923Y-4955D01*
X-7572Y-4687D01*
X-8268Y-4595D01*
D02*
G37*
G36*
X-6299Y-14127D02*
X-6806Y-14228D01*
X-7237Y-14515D01*
X-7524Y-14945D01*
X-7625Y-15453D01*
X-7524Y-15960D01*
X-7237Y-16390D01*
X-6806Y-16677D01*
X-6299Y-16778D01*
X-5792Y-16677D01*
X-5362Y-16390D01*
X-5075Y-15960D01*
X-4974Y-15453D01*
X-5075Y-14945D01*
X-5362Y-14515D01*
X-5792Y-14228D01*
X-6299Y-14127D01*
D02*
G37*
G36*
X-29528Y-15997D02*
X-30035Y-16098D01*
X-30465Y-16386D01*
X-30752Y-16816D01*
X-30853Y-17323D01*
X-30752Y-17830D01*
X-30465Y-18260D01*
Y-18748D01*
X-30752Y-19178D01*
X-30853Y-19685D01*
X-30752Y-20192D01*
X-30465Y-20622D01*
X-30035Y-20910D01*
X-29528Y-21011D01*
X-29020Y-20910D01*
X-28590Y-20622D01*
X-28303Y-20192D01*
X-28202Y-19685D01*
X-28303Y-19178D01*
X-28590Y-18748D01*
Y-18260D01*
X-28303Y-17830D01*
X-28202Y-17323D01*
X-28303Y-16816D01*
X-28590Y-16386D01*
X-29020Y-16098D01*
X-29528Y-15997D01*
D02*
G37*
%LPD*%
D14*
X51181Y0D02*
G03*
X51181Y0I-51181J0D01*
G01*
D15*
X8650Y17717D02*
D03*
X-21654Y-29528D02*
D03*
Y-35039D02*
D03*
X14567Y17717D02*
D03*
D16*
X-28839Y-10531D02*
D03*
Y-8563D02*
D03*
Y-689D02*
D03*
Y-4626D02*
D03*
Y-2657D02*
D03*
Y-6594D02*
D03*
X-43996Y-10531D02*
D03*
Y-8563D02*
D03*
Y-2657D02*
D03*
Y-6594D02*
D03*
Y-4626D02*
D03*
Y-689D02*
D03*
D17*
X-31496Y-13189D02*
D03*
X-33465Y1969D02*
D03*
X-31496D02*
D03*
X-39370Y-13189D02*
D03*
X-41339D02*
D03*
X-33465D02*
D03*
X-37402D02*
D03*
X-35433D02*
D03*
Y1969D02*
D03*
X-37402D02*
D03*
X-41339D02*
D03*
X-39370D02*
D03*
D18*
X-36417Y-5610D02*
D03*
D19*
X17126Y-17323D02*
D03*
X22638D02*
D03*
D20*
X24803Y-24213D02*
D03*
Y12402D02*
D03*
D21*
X21260Y-24213D02*
D03*
X18504D02*
D03*
X15748D02*
D03*
X12992D02*
D03*
X10236D02*
D03*
X7480D02*
D03*
X4724D02*
D03*
X1969D02*
D03*
X-787D02*
D03*
X-3543D02*
D03*
X-6299D02*
D03*
X-9055D02*
D03*
X-11811D02*
D03*
X-14567D02*
D03*
X-11811Y12402D02*
D03*
X-9055D02*
D03*
X-6299D02*
D03*
X-3543D02*
D03*
X-787D02*
D03*
X1969D02*
D03*
X4724D02*
D03*
X7480D02*
D03*
X10236D02*
D03*
X12992D02*
D03*
D22*
X-20276Y-22441D02*
D03*
Y-19685D02*
D03*
Y-16929D02*
D03*
Y-14173D02*
D03*
Y-11417D02*
D03*
Y-8661D02*
D03*
Y-5906D02*
D03*
Y-3150D02*
D03*
Y-394D02*
D03*
Y2362D02*
D03*
Y5118D02*
D03*
Y7874D02*
D03*
Y10630D02*
D03*
D23*
X11634Y22835D02*
D03*
X8051D02*
D03*
D24*
X-14842Y32480D02*
D03*
X14842Y40354D02*
D03*
D25*
X-10827Y33150D02*
D03*
X-6890D02*
D03*
X-8858D02*
D03*
X-2953D02*
D03*
X-4921D02*
D03*
X-8858Y39685D02*
D03*
X-10827D02*
D03*
X-6890D02*
D03*
X-4921D02*
D03*
X-2953D02*
D03*
X-984Y33150D02*
D03*
X984D02*
D03*
X2953D02*
D03*
X6890D02*
D03*
X4921D02*
D03*
X8858D02*
D03*
X10827D02*
D03*
X-984Y39685D02*
D03*
X984D02*
D03*
X2953D02*
D03*
X4921D02*
D03*
X10827D02*
D03*
X6890D02*
D03*
X8858D02*
D03*
D26*
X0Y27953D02*
D03*
X-4724D02*
D03*
X0Y44882D02*
D03*
X-4724D02*
D03*
X4724Y27953D02*
D03*
Y44882D02*
D03*
D27*
X-14842Y40354D02*
D03*
X14842Y32480D02*
D03*
D28*
X-22343Y41004D02*
D03*
Y37539D02*
D03*
D29*
X-47638Y1974D02*
D03*
Y4336D02*
D03*
D30*
X-35433Y-17165D02*
D03*
X-38898D02*
D03*
D54*
X6811Y-41870D02*
D03*
Y-36870D02*
D03*
X11811Y-41870D02*
D03*
Y-36870D02*
D03*
X16811Y-41870D02*
D03*
Y-36870D02*
D03*
D55*
X-23703Y20866D02*
X-1200D01*
X-24159Y21966D02*
X-1656D01*
X-1575Y25000D02*
X-550Y23975D01*
Y23072D02*
Y23975D01*
X-1656Y21966D02*
X-550Y23072D01*
X-27953Y18172D02*
X-24159Y21966D01*
X-27953Y8268D02*
Y18172D01*
X-29215Y7006D02*
X-27953Y8268D01*
X-35679Y7006D02*
X-29215D01*
X-36967Y3589D02*
Y5717D01*
X-35679Y7006D01*
X-37402Y3155D02*
X-36967Y3589D01*
X-37402Y1969D02*
Y3155D01*
X550Y23975D02*
X1575Y25000D01*
X550Y22616D02*
Y23975D01*
X-1200Y20866D02*
X550Y22616D01*
X-26853Y17717D02*
X-23703Y20866D01*
X-26853Y7812D02*
Y17717D01*
X-28759Y5906D02*
X-26853Y7812D01*
X-35223Y5906D02*
X-28759D01*
X-35867Y5261D02*
X-35223Y5906D01*
X-35867Y3589D02*
X-35433Y3155D01*
X-35867Y3589D02*
Y5261D01*
X-35433Y1969D02*
Y3155D01*
X-2402Y30276D02*
X-1336D01*
X984Y33150D02*
Y34650D01*
X-984Y30627D02*
Y33150D01*
X-2461Y30276D02*
X-2451Y30285D01*
X984Y30627D02*
X1336Y30276D01*
X984Y30627D02*
Y33150D01*
X-1336Y30276D02*
X-984Y30627D01*
X1336Y30276D02*
X2402D01*
X-694Y37702D02*
Y39395D01*
Y37702D02*
X0Y37008D01*
Y35635D02*
Y37008D01*
Y35635D02*
X984Y34650D01*
X-984Y39685D02*
X-694Y39395D01*
X984Y39685D02*
Y42520D01*
D56*
X-11811Y7480D02*
Y12402D01*
X-11417Y12795D01*
X-47638Y4336D02*
X-43706D01*
X-47632Y1969D02*
X-43701D01*
X-43706Y4336D02*
X-43701Y4331D01*
X-47638Y1974D02*
X-47632Y1969D01*
X4724Y-38957D02*
X6811Y-36870D01*
X4724Y-38976D02*
Y-38957D01*
X-24847Y36964D02*
X-24803Y37008D01*
X-22874D01*
X-22343Y37539D01*
X-15354Y12495D02*
Y12598D01*
X-15583Y12267D02*
X-15354Y12495D01*
X-16473Y12267D02*
X-15583D01*
X-18110Y10630D02*
X-16473Y12267D01*
X-20276Y10630D02*
X-18110D01*
X-43701Y1969D02*
X-41339D01*
X4724Y-28740D02*
Y-24213D01*
X15748Y-28740D02*
Y-24213D01*
X18504Y-28740D02*
Y-24213D01*
X14705Y-38976D02*
X14764Y-38917D01*
X16811Y-36870D01*
Y-41870D02*
X16969D01*
X18986Y-43887D01*
X11811Y-41870D02*
X14035Y-44094D01*
X6811Y-41870D02*
X9035Y-44094D01*
X-4921Y36417D02*
Y39685D01*
Y33150D02*
Y36417D01*
X11634Y20295D02*
X11811Y20118D01*
X4921Y36417D02*
Y39685D01*
Y33150D02*
Y36417D01*
X-10827Y33150D02*
Y36614D01*
Y39685D01*
X10827Y36417D02*
Y39685D01*
Y33150D02*
Y36417D01*
X-25197Y-22441D02*
X-20276D01*
X24803Y12402D02*
Y17003D01*
Y-28740D02*
Y-24213D01*
X-33724Y-4331D02*
X-33465Y-4072D01*
Y1969D01*
X-46850Y-1575D02*
X-45965Y-689D01*
X-43996D01*
X-46850Y-1575D02*
X-45768Y-2657D01*
X-43996D01*
X-41339Y1969D02*
X-39370D01*
X-41732Y-17165D02*
X-38898D01*
X-25984Y38976D02*
X-24500Y40460D01*
X-22813D01*
X-22343Y40931D01*
Y41004D01*
D57*
X11634Y20295D02*
Y22835D01*
X5512Y23228D02*
X5531Y23209D01*
X7677D01*
X8051Y22835D01*
D58*
X4724Y-5374D02*
X21457Y11358D01*
Y12992D01*
X-18504Y-31890D02*
X-14173D01*
X-21654Y-35039D02*
X-18504Y-31890D01*
X-11811Y-29528D02*
Y-24213D01*
X-14173Y-31890D02*
X-11811Y-29528D01*
X-15945D02*
X-14567Y-28150D01*
Y-24213D01*
X-21654Y-29528D02*
X-15945D01*
X7832Y-31084D02*
X10236Y-28679D01*
Y-24213D01*
X-3721Y-31084D02*
X7832D01*
X3966Y-32283D02*
X5222Y-33540D01*
X79Y-32283D02*
X3966D01*
X-8327Y-40689D02*
X79Y-32283D01*
X5222Y-33540D02*
X17146D01*
X-8327Y-35689D02*
X-3721Y-31084D01*
X12992Y-24213D02*
Y-19685D01*
X9449Y-39370D02*
X11811Y-37008D01*
Y-36929D01*
X17146Y-33540D02*
X21260Y-29426D01*
X4724Y-10630D02*
Y-5374D01*
X1969Y-24213D02*
Y-4975D01*
X15748Y8805D01*
Y12992D01*
X21636Y12975D02*
X21654Y12992D01*
X4724Y-10630D02*
X7480Y-13386D01*
Y-24213D02*
Y-13386D01*
X21260Y-29426D02*
Y-24213D01*
X7480Y7874D02*
Y12402D01*
X7480Y12402D01*
X2854Y36410D02*
X2953Y36312D01*
Y33150D02*
Y36312D01*
X-2953Y39685D02*
Y42520D01*
D59*
X-3193Y39925D02*
X-2953Y39685D01*
X-28839Y-2657D02*
X-25591D01*
X13042Y16192D02*
X14567Y17717D01*
X12992Y12402D02*
X13042Y12452D01*
Y16192D01*
X10175Y12463D02*
X10236Y12402D01*
X10175Y12463D02*
Y16192D01*
X8650Y17717D02*
X10175Y16192D01*
X-3543Y7480D02*
Y12402D01*
X-20276Y-14173D02*
X-15748D01*
X-28839Y-6594D02*
X-25591D01*
X-20374Y-8563D02*
X-20276Y-8661D01*
X-28839Y-8563D02*
X-20374D01*
X-35433Y-17165D02*
X-35276Y-17323D01*
X-35433Y-17165D02*
Y-13189D01*
D60*
X-10293Y27953D02*
X-9449D01*
X-10293Y44882D02*
X-9449D01*
X9449D02*
X10293D01*
X9449Y27953D02*
X10293D01*
D61*
X-34646Y18701D02*
D03*
D62*
Y12795D02*
D03*
D63*
X-8327Y-40689D02*
D03*
X-13327D02*
D03*
X-8327Y-35689D02*
D03*
D64*
X-13327D02*
D03*
D65*
X-9449Y27953D02*
D03*
Y44882D02*
D03*
X9449Y27953D02*
D03*
Y44882D02*
D03*
D66*
X-9078Y17184D02*
D03*
X-6102D02*
D03*
X-11811Y7480D02*
D03*
X-43701Y4331D02*
D03*
X1962Y7352D02*
D03*
X10956D02*
D03*
X-36614Y25591D02*
D03*
X-29215Y-36929D02*
D03*
X-37377Y-29426D02*
D03*
X25591Y-39342D02*
D03*
X4733Y-47244D02*
D03*
X22153Y39653D02*
D03*
X19653Y34653D02*
D03*
Y4653D02*
D03*
X22153Y-347D02*
D03*
X19653Y-5347D02*
D03*
Y-15347D02*
D03*
X14653Y44653D02*
D03*
X17153Y-347D02*
D03*
X12153D02*
D03*
X9653Y-15347D02*
D03*
X7153Y19653D02*
D03*
X4653Y-15347D02*
D03*
X2153Y-347D02*
D03*
X-347Y-5347D02*
D03*
X-2847Y-347D02*
D03*
Y-10347D02*
D03*
Y-40347D02*
D03*
X-5347Y-45347D02*
D03*
X-7847Y-347D02*
D03*
Y-30347D02*
D03*
X-10347Y-45347D02*
D03*
X-15347Y44653D02*
D03*
Y4653D02*
D03*
X-12847Y-347D02*
D03*
X-20347Y34653D02*
D03*
Y-25347D02*
D03*
X-17847Y-40347D02*
D03*
X-22847D02*
D03*
X-42847Y-20347D02*
D03*
X4724Y-38976D02*
D03*
X-24803Y37008D02*
D03*
X-15354Y12598D02*
D03*
X-12992Y25591D02*
D03*
X-22638Y16929D02*
D03*
X-28346Y20079D02*
D03*
X4724Y-28740D02*
D03*
X15748D02*
D03*
X12992Y-19685D02*
D03*
X9449Y-39370D02*
D03*
X15748Y12992D02*
D03*
X21457D02*
D03*
X4724Y-17717D02*
D03*
X-6299Y-15453D02*
D03*
X18504Y-28740D02*
D03*
X14764Y-38917D02*
D03*
X18986Y-43887D02*
D03*
X9035Y-44094D02*
D03*
X14035D02*
D03*
X-4921Y36417D02*
D03*
X-2756Y36410D02*
D03*
X5512Y23228D02*
D03*
X4724Y20079D02*
D03*
X11634Y20295D02*
D03*
X9252D02*
D03*
X15748Y26575D02*
D03*
X5906Y30177D02*
D03*
X7480Y7874D02*
D03*
X2402Y47244D02*
D03*
X-2362D02*
D03*
X4921Y36417D02*
D03*
X-10827Y36614D02*
D03*
X10827Y36417D02*
D03*
X-39803Y6063D02*
D03*
X-15551Y-5118D02*
D03*
X-25591Y-2657D02*
D03*
X-25197Y-22441D02*
D03*
X24803Y17003D02*
D03*
Y-28740D02*
D03*
X-3543Y7480D02*
D03*
X-5906D02*
D03*
X21457Y26575D02*
D03*
X12027Y-8858D02*
D03*
X0Y-12205D02*
D03*
X-39961Y-21457D02*
D03*
X-36417Y-6693D02*
D03*
Y-4331D02*
D03*
X-26221Y-17165D02*
D03*
X-43701Y-14961D02*
D03*
Y-12598D02*
D03*
X-29528Y-19685D02*
D03*
Y-17323D02*
D03*
X-46850Y-1575D02*
D03*
X-46055Y7484D02*
D03*
X-43701Y1969D02*
D03*
X-15748Y-14173D02*
D03*
X-25591Y-6594D02*
D03*
X-41732Y-17165D02*
D03*
X-33724Y-4331D02*
D03*
Y-6693D02*
D03*
X-39248D02*
D03*
Y-4331D02*
D03*
X-25827Y3150D02*
D03*
X-18504Y32677D02*
D03*
X-19094Y16929D02*
D03*
X-16535Y14567D02*
D03*
X-25984Y38976D02*
D03*
D67*
X-4331Y30276D02*
D03*
X-3543Y25000D02*
D03*
X3543D02*
D03*
X-1575D02*
D03*
X1575D02*
D03*
X-2402Y30276D02*
D03*
X2402D02*
D03*
X2854Y36410D02*
D03*
X984Y42520D02*
D03*
X-2953D02*
D03*
M02*
