G04*
G04 #@! TF.GenerationSoftware,Altium Limited,Altium Designer,19.0.14 (431)*
G04*
G04 Layer_Physical_Order=3*
G04 Layer_Color=128*
%FSLAX25Y25*%
%MOIN*%
G70*
G01*
G75*
%ADD14C,0.00050*%
%ADD57C,0.01500*%
%ADD68C,0.04000*%
%ADD69C,0.07331*%
%ADD70C,0.05953*%
%ADD73C,0.05362*%
%ADD75C,0.05598*%
%ADD76O,0.06937X0.05284*%
%ADD77C,0.10874*%
%ADD78C,0.03800*%
%ADD79C,0.03600*%
%ADD80R,0.05000X0.05000*%
%ADD81C,0.05756*%
G36*
X54134Y-47244D02*
X26772D01*
Y-48031D01*
X18898D01*
Y-43976D01*
X18986Y-43887D01*
Y-40945D01*
X26575D01*
Y47244D01*
X54134D01*
Y-47244D01*
D02*
G37*
D14*
X51181Y0D02*
G03*
X51181Y0I-51181J0D01*
G01*
D57*
X-10295Y21201D02*
X-9843Y21654D01*
X-10295Y21201D02*
Y23622D01*
X-13386Y18110D02*
X-10295Y21201D01*
X-9843Y21654D02*
X5007D01*
X-8661Y38189D02*
X-6022D01*
X-22047Y4724D02*
Y7874D01*
X-26694Y78D02*
X-22047Y4724D01*
X-32283Y-5512D02*
X-26694Y78D01*
X-41852Y-5512D02*
X-32283D01*
X-43820Y-7480D02*
X-41852Y-5512D01*
X-6022Y38189D02*
X-4921D01*
X-10295Y36556D02*
X-8661Y38189D01*
X-10295Y23622D02*
Y36556D01*
X5007Y21654D02*
X6582Y20079D01*
X-6022Y38189D02*
X-4921D01*
X-5678D02*
X-4921D01*
X6872Y20079D02*
X7087D01*
X6872D02*
X7087Y20294D01*
Y36614D01*
X5512Y38189D02*
X7087Y36614D01*
X-4921Y38189D02*
X5512D01*
X-43820Y-25591D02*
Y-10167D01*
Y-7480D01*
X-22047Y6371D02*
Y11125D01*
X-20967Y12205D01*
X-15354D01*
X-13386Y14173D01*
Y18110D01*
X6582Y20079D02*
X8231D01*
X14961Y13350D01*
X27559D01*
D68*
X-51181Y0D02*
G03*
X0Y-51181I51181J0D01*
G01*
Y51181D02*
G03*
X-51181Y0I0J-51181D01*
G01*
X51181D02*
G03*
X0Y51181I-51181J0D01*
G01*
Y-51181D02*
G03*
X51181Y0I0J51181D01*
G01*
D69*
X-8268Y-7283D02*
D03*
X8268D02*
D03*
X21811Y-39370D02*
D03*
X1811Y-43370D02*
D03*
Y-35370D02*
D03*
D70*
X-34646Y12795D02*
D03*
Y18701D02*
D03*
D73*
X-13327Y-35689D02*
D03*
X-8327D02*
D03*
X-13327Y-40689D02*
D03*
X-8327D02*
D03*
D75*
X14764Y36417D02*
D03*
D76*
X-14764D02*
D03*
D77*
X29528Y29528D02*
D03*
X-29528D02*
D03*
Y-29528D02*
D03*
D78*
X-9078Y17184D02*
D03*
X-6102D02*
D03*
X-43701Y4331D02*
D03*
X1962Y7352D02*
D03*
X10956D02*
D03*
X-36614Y25591D02*
D03*
X-29215Y-36929D02*
D03*
X-37377Y-29426D02*
D03*
X25591Y-39342D02*
D03*
X4733Y-47244D02*
D03*
X22153Y39653D02*
D03*
X19653Y34653D02*
D03*
Y4653D02*
D03*
X22153Y-347D02*
D03*
X19653Y-5347D02*
D03*
Y-15347D02*
D03*
X14653Y44653D02*
D03*
X17153Y-347D02*
D03*
X12153D02*
D03*
X9653Y-15347D02*
D03*
X7153Y19653D02*
D03*
X4653Y-15347D02*
D03*
X2153Y-347D02*
D03*
X-347Y-5347D02*
D03*
X-2847Y-347D02*
D03*
Y-10347D02*
D03*
Y-40347D02*
D03*
X-5347Y-45347D02*
D03*
X-7847Y-347D02*
D03*
Y-30347D02*
D03*
X-10347Y-45347D02*
D03*
X-15347Y44653D02*
D03*
Y4653D02*
D03*
X-12847Y-347D02*
D03*
X-20347Y34653D02*
D03*
Y-25347D02*
D03*
X-17847Y-40347D02*
D03*
X-22847D02*
D03*
X-42847Y-20347D02*
D03*
X4724Y-38976D02*
D03*
X-24803Y37008D02*
D03*
X-15354Y12598D02*
D03*
X-28346Y20079D02*
D03*
X4724Y-28740D02*
D03*
X15748D02*
D03*
X12992Y-19685D02*
D03*
X9449Y-39370D02*
D03*
X15748Y12992D02*
D03*
X21457D02*
D03*
X18504Y-28740D02*
D03*
X18986Y-43887D02*
D03*
X9035Y-44094D02*
D03*
X14035D02*
D03*
X-2756Y36410D02*
D03*
X9252Y20295D02*
D03*
X15748Y26575D02*
D03*
X5906Y30177D02*
D03*
X7480Y7874D02*
D03*
X2402Y47244D02*
D03*
X-2362D02*
D03*
X-10827Y36614D02*
D03*
X10827Y36417D02*
D03*
X-39803Y6063D02*
D03*
X-15551Y-5118D02*
D03*
X-25591Y-2657D02*
D03*
X-25197Y-22441D02*
D03*
X24803Y17003D02*
D03*
Y-28740D02*
D03*
X-3543Y7480D02*
D03*
X-5906D02*
D03*
X21457Y26575D02*
D03*
X12027Y-8858D02*
D03*
X0Y-12205D02*
D03*
X-39961Y-21457D02*
D03*
X-36417Y-6693D02*
D03*
Y-4331D02*
D03*
X-26221Y-17165D02*
D03*
X-43701Y-14961D02*
D03*
Y-12598D02*
D03*
X-46055Y7484D02*
D03*
X-43701Y1969D02*
D03*
X-15748Y-14173D02*
D03*
X-25591Y-6594D02*
D03*
X-41732Y-17165D02*
D03*
X-33724Y-4331D02*
D03*
Y-6693D02*
D03*
X-39248D02*
D03*
Y-4331D02*
D03*
X-25827Y3150D02*
D03*
X-18504Y32677D02*
D03*
X-19094Y16929D02*
D03*
X-16535Y14567D02*
D03*
D79*
X-4331Y30276D02*
D03*
X-3543Y25000D02*
D03*
X3543D02*
D03*
X-1575D02*
D03*
X1575D02*
D03*
X-2402Y30276D02*
D03*
X2402D02*
D03*
X2854Y36410D02*
D03*
X984Y42520D02*
D03*
X-2953D02*
D03*
D80*
X-10827Y-38189D02*
D03*
D81*
X9449Y44882D02*
D03*
Y27953D02*
D03*
X-9449Y44882D02*
D03*
Y27953D02*
D03*
M02*
