G04*
G04 #@! TF.GenerationSoftware,Altium Limited,Altium Designer,19.0.14 (431)*
G04*
G04 Layer_Color=128*
%FSLAX25Y25*%
%MOIN*%
G70*
G01*
G75*
%ADD14C,0.00050*%
%ADD28R,0.02441X0.02598*%
%ADD29R,0.01575X0.01181*%
%ADD30R,0.02598X0.02441*%
%ADD82R,0.01378X0.02165*%
%ADD83R,0.07874X0.04567*%
%ADD84R,0.07874X0.03937*%
%ADD85R,0.03543X0.07874*%
%ADD86R,0.03543X0.01772*%
%ADD87R,0.02165X0.02165*%
%ADD88R,0.00984X0.00787*%
%ADD89R,0.00787X0.00984*%
%ADD90R,0.01181X0.01102*%
%ADD91R,0.02559X0.03150*%
%ADD92R,0.04134X0.03150*%
%ADD93R,0.02362X0.04134*%
%ADD94R,0.01575X0.02756*%
%ADD95R,0.03150X0.03150*%
%ADD96R,0.01575X0.00984*%
%ADD97R,0.01181X0.01575*%
%ADD98R,0.03150X0.03150*%
%ADD99R,0.02165X0.02165*%
D14*
X51181Y0D02*
G03*
X51181Y0I-51181J0D01*
G01*
D28*
X-46457Y-4173D02*
D03*
Y-7638D02*
D03*
X-23228Y24173D02*
D03*
Y20709D02*
D03*
X-46055Y1417D02*
D03*
Y4882D02*
D03*
X-37008Y2598D02*
D03*
Y6063D02*
D03*
D29*
X-11811Y-16929D02*
D03*
Y-14567D02*
D03*
D30*
X-12559Y14567D02*
D03*
X-9094D02*
D03*
X-32283Y3150D02*
D03*
X-28819D02*
D03*
X-32913Y-19291D02*
D03*
X-36378D02*
D03*
X-29685Y-14567D02*
D03*
X-26221D02*
D03*
D82*
X-40354Y-1457D02*
D03*
X-38386D02*
D03*
X-36417D02*
D03*
X-34449D02*
D03*
X-40354Y-9764D02*
D03*
X-36417D02*
D03*
X-34449D02*
D03*
X-38386D02*
D03*
X-32480Y-1457D02*
D03*
Y-9764D02*
D03*
D83*
X-36417Y-5610D02*
D03*
D84*
X-17717Y-8858D02*
D03*
X17717D02*
D03*
X-17717Y8858D02*
D03*
X17717D02*
D03*
D85*
X0Y-17717D02*
D03*
Y17717D02*
D03*
D86*
X8268Y34547D02*
D03*
Y38681D02*
D03*
D87*
X-36417Y-24016D02*
D03*
X-39961D02*
D03*
X-9252Y32677D02*
D03*
X-5709D02*
D03*
X-19094Y24173D02*
D03*
X-15551D02*
D03*
X-15551Y19291D02*
D03*
X-19094D02*
D03*
X-19094Y-14173D02*
D03*
X-22638D02*
D03*
Y14567D02*
D03*
X-19094D02*
D03*
X-32874Y-14567D02*
D03*
X-36417D02*
D03*
D88*
X-1811Y28661D02*
D03*
X1811D02*
D03*
D89*
X-787Y30079D02*
D03*
X787D02*
D03*
Y27244D02*
D03*
X-787D02*
D03*
D90*
X2953Y32736D02*
D03*
Y34587D02*
D03*
X-2953Y38445D02*
D03*
Y40295D02*
D03*
D91*
X-24705Y8661D02*
D03*
D92*
X-28839D02*
D03*
D93*
X-14370Y40256D02*
D03*
X-21850D02*
D03*
X-14370Y29035D02*
D03*
X-21850D02*
D03*
X-18110D02*
D03*
D94*
X-6299Y-24311D02*
D03*
Y-18406D02*
D03*
X-28937Y14173D02*
D03*
D95*
X15748Y23425D02*
D03*
Y29724D02*
D03*
X21457Y23425D02*
D03*
Y29724D02*
D03*
D96*
X-26181Y15059D02*
D03*
Y13287D02*
D03*
D97*
X-3740Y14764D02*
D03*
X-6102D02*
D03*
X11614Y22835D02*
D03*
X9252D02*
D03*
D98*
X-11811Y21260D02*
D03*
X-5512D02*
D03*
D99*
X5158Y43504D02*
D03*
Y47047D02*
D03*
X-5118Y43504D02*
D03*
Y47047D02*
D03*
X4724Y17520D02*
D03*
Y13976D02*
D03*
X9449Y17520D02*
D03*
Y13976D02*
D03*
X-7874Y40121D02*
D03*
Y36577D02*
D03*
X4724Y-20669D02*
D03*
Y-24213D02*
D03*
X-11811Y-24272D02*
D03*
Y-20728D02*
D03*
X21457Y15512D02*
D03*
Y19055D02*
D03*
X15748Y15748D02*
D03*
Y19291D02*
D03*
M02*
