G04*
G04 #@! TF.GenerationSoftware,Altium Limited,Altium Designer,19.0.14 (431)*
G04*
G04 Layer_Color=65535*
%FSLAX25Y25*%
%MOIN*%
G70*
G01*
G75*
%ADD10C,0.01181*%
%ADD11C,0.00984*%
%ADD12C,0.00787*%
%ADD13C,0.00500*%
%ADD14C,0.00050*%
D10*
X20807Y-34557D02*
G03*
X20807Y-34557I-591J0D01*
G01*
X25787Y18898D02*
G03*
X25787Y18898I-591J0D01*
G01*
D11*
X-28051Y5413D02*
G03*
X-28051Y5413I-492J0D01*
G01*
D12*
X-44882Y2854D02*
X-43406D01*
X-44882Y1378D02*
Y2854D01*
Y-14075D02*
X-43406D01*
X-44882D02*
Y-12598D01*
X-29429Y2854D02*
X-27953D01*
Y1378D02*
Y2854D01*
X-29429Y-14075D02*
X-27953D01*
Y-12598D01*
X15354Y13780D02*
X21654D01*
X28543D02*
X41339D01*
Y-25591D02*
Y13780D01*
X27953Y-25591D02*
X41339D01*
X-21654Y13780D02*
X-14173D01*
X-21654Y12795D02*
Y13780D01*
Y-25591D02*
X-16732D01*
X-21654D02*
Y-24803D01*
X-43307Y24606D02*
X-29528D01*
Y6890D02*
Y24606D01*
X-43307Y6890D02*
X-29528D01*
X-43307D02*
Y24606D01*
X-18012Y-43720D02*
X-3642D01*
X-18012Y-32697D02*
X-3642D01*
X-18012Y-43720D02*
Y-32697D01*
X-3642Y-43720D02*
Y-32697D01*
D13*
X26781Y-33918D02*
Y-35822D01*
X26662Y-36179D01*
X26543Y-36298D01*
X26305Y-36417D01*
X26067D01*
X25829Y-36298D01*
X25710Y-36179D01*
X25591Y-35822D01*
Y-35584D01*
X27542Y-34513D02*
Y-34394D01*
X27661Y-34156D01*
X27781Y-34037D01*
X28019Y-33918D01*
X28495D01*
X28733Y-34037D01*
X28852Y-34156D01*
X28971Y-34394D01*
Y-34632D01*
X28852Y-34870D01*
X28614Y-35227D01*
X27424Y-36417D01*
X29090D01*
X-31496Y-17186D02*
Y-18971D01*
X-31377Y-19328D01*
X-31139Y-19566D01*
X-30782Y-19685D01*
X-30544D01*
X-30187Y-19566D01*
X-29949Y-19328D01*
X-29830Y-18971D01*
Y-17186D01*
X-27949D02*
X-29139Y-18852D01*
X-27354D01*
X-27949Y-17186D02*
Y-19685D01*
X36417Y19232D02*
Y17446D01*
X36536Y17089D01*
X36774Y16851D01*
X37132Y16732D01*
X37369D01*
X37727Y16851D01*
X37965Y17089D01*
X38084Y17446D01*
Y19232D01*
X38893Y18637D02*
Y18756D01*
X39012Y18994D01*
X39131Y19113D01*
X39369Y19232D01*
X39845D01*
X40083Y19113D01*
X40202Y18994D01*
X40321Y18756D01*
Y18518D01*
X40202Y18280D01*
X39964Y17922D01*
X38774Y16732D01*
X40440D01*
X14764Y24153D02*
Y21654D01*
X16192D01*
X16466Y23677D02*
X16704Y23796D01*
X17061Y24153D01*
Y21654D01*
X-27106Y14970D02*
X-25201D01*
X-24844Y14851D01*
X-24725Y14732D01*
X-24606Y14494D01*
Y14256D01*
X-24725Y14018D01*
X-24844Y13899D01*
X-25201Y13780D01*
X-25439D01*
X-27106Y15850D02*
Y17160D01*
X-26154Y16446D01*
Y16803D01*
X-26035Y17041D01*
X-25916Y17160D01*
X-25559Y17279D01*
X-25320D01*
X-24963Y17160D01*
X-24725Y16922D01*
X-24606Y16565D01*
Y16208D01*
X-24725Y15850D01*
X-24844Y15732D01*
X-25082Y15612D01*
X-40409Y26575D02*
X-40528Y26813D01*
X-40885Y27170D01*
X-38386D01*
X-23416Y-38190D02*
Y-40094D01*
X-23535Y-40451D01*
X-23654Y-40570D01*
X-23892Y-40689D01*
X-24130D01*
X-24368Y-40570D01*
X-24487Y-40451D01*
X-24606Y-40094D01*
Y-39856D01*
X-21583Y-38190D02*
X-22773Y-39856D01*
X-20988D01*
X-21583Y-38190D02*
Y-40689D01*
X-16098Y-29941D02*
X-16217Y-29703D01*
X-16574Y-29346D01*
X-14075D01*
X-17314Y28090D02*
Y26186D01*
X-17433Y25829D01*
X-17552Y25710D01*
X-17790Y25591D01*
X-18028D01*
X-18266Y25710D01*
X-18385Y25829D01*
X-18504Y26186D01*
Y26424D01*
X-16671Y27614D02*
X-16433Y27733D01*
X-16076Y28090D01*
Y25591D01*
X20890Y31496D02*
X19938Y33996D01*
X18986Y31496D01*
X19343Y32329D02*
X20533D01*
X21474Y33519D02*
X21711Y33639D01*
X22069Y33996D01*
Y31496D01*
X-22574Y31962D02*
X-22812Y31844D01*
X-23050Y31605D01*
X-23169Y31367D01*
Y30891D01*
X-23050Y30653D01*
X-22812Y30415D01*
X-22574Y30296D01*
X-22217Y30177D01*
X-21621D01*
X-21264Y30296D01*
X-21026Y30415D01*
X-20788Y30653D01*
X-20669Y30891D01*
Y31367D01*
X-20788Y31605D01*
X-21026Y31844D01*
X-21264Y31962D01*
X-22574Y32784D02*
X-22693D01*
X-22931Y32903D01*
X-23050Y33022D01*
X-23169Y33260D01*
Y33736D01*
X-23050Y33974D01*
X-22931Y34093D01*
X-22693Y34212D01*
X-22455D01*
X-22217Y34093D01*
X-21859Y33855D01*
X-20669Y32665D01*
Y34331D01*
X-47960Y8675D02*
X-48198Y8556D01*
X-48436Y8318D01*
X-48555Y8080D01*
Y7604D01*
X-48436Y7366D01*
X-48198Y7128D01*
X-47960Y7009D01*
X-47602Y6890D01*
X-47007D01*
X-46650Y7009D01*
X-46412Y7128D01*
X-46174Y7366D01*
X-46055Y7604D01*
Y8080D01*
X-46174Y8318D01*
X-46412Y8556D01*
X-46650Y8675D01*
X-48555Y10806D02*
Y9615D01*
X-47484Y9496D01*
X-47602Y9615D01*
X-47721Y9972D01*
Y10329D01*
X-47602Y10687D01*
X-47365Y10925D01*
X-47007Y11044D01*
X-46769D01*
X-46412Y10925D01*
X-46174Y10687D01*
X-46055Y10329D01*
Y9972D01*
X-46174Y9615D01*
X-46293Y9496D01*
X-46531Y9377D01*
X-37463Y-20733D02*
X-37582Y-20495D01*
X-37820Y-20257D01*
X-38058Y-20138D01*
X-38534D01*
X-38772Y-20257D01*
X-39010Y-20495D01*
X-39129Y-20733D01*
X-39248Y-21091D01*
Y-21686D01*
X-39129Y-22043D01*
X-39010Y-22281D01*
X-38772Y-22519D01*
X-38534Y-22638D01*
X-38058D01*
X-37820Y-22519D01*
X-37582Y-22281D01*
X-37463Y-22043D01*
X-35214Y-20971D02*
X-35333Y-21329D01*
X-35571Y-21567D01*
X-35928Y-21686D01*
X-36047D01*
X-36404Y-21567D01*
X-36642Y-21329D01*
X-36761Y-20971D01*
Y-20853D01*
X-36642Y-20495D01*
X-36404Y-20257D01*
X-36047Y-20138D01*
X-35928D01*
X-35571Y-20257D01*
X-35333Y-20495D01*
X-35214Y-20971D01*
Y-21567D01*
X-35333Y-22162D01*
X-35571Y-22519D01*
X-35928Y-22638D01*
X-36166D01*
X-36523Y-22519D01*
X-36642Y-22281D01*
D14*
X51181Y0D02*
G03*
X51181Y0I-51181J0D01*
G01*
M02*
