M48
;Layer_Color=9474304
;FILE_FORMAT=2:5
INCH,LZ
;TYPE=PLATED
T1F00S00C0.00600
T2F00S00C0.00800
T3F00S00C0.02362
T4F00S00C0.02756
T5F00S00C0.02953
;TYPE=NON_PLATED
T7F00S00C0.02598
T8F00S00C0.04331
T9F00S00C0.07874
%
T01
X-0003543Y0025
X-0001575
X0001575
X0003543
X0002402Y0030276
X-0002402
X-0004331
X0002854Y003641
X0000984Y004252
X-0002953
T02
X-0037377Y-0029426
X-0039961Y-0021457
X-0042847Y-0020347
X-0041732Y-0017165
X-0043701Y-0014961
Y-0012598
X-0039248Y-0006693
Y-0004331
X-0036417
Y-0006693
X-0033724
Y-0004331
X-0025591Y-0002657
Y-0006594
X-0025827Y000315
X-0015347Y0004653
X-0011811Y000748
X-0005906
X-0003543
X0001962Y0007352
X000748Y0007874
X0010956Y0007352
X0012153Y-0000347
X0017153
X0022153
X0019653Y0004653
Y-0005347
Y-0015347
X0009653
X0004653
X0004724Y-0017717
X0Y-0012205
X-0002847Y-0010347
X-0000347Y-0005347
X0002153Y-0000347
X-0002847
X-0007847
X-0012847
X-0015551Y-0005118
X-0015748Y-0014173
X-0006299Y-0015453
X-0007847Y-0030347
X0004724Y-002874
X0004724Y-0038976
X0009449Y-003937
X0009035Y-0044094
X0014035
X0018986Y-0043887
X0014764Y-0038917
X0015748Y-002874
X0018504
X0024803
X0025591Y-0039342
X0004733Y-0047244
X-0005347Y-0045347
X-0010347
X-0002847Y-0040347
X-0017847
X-0022847
X-0029215Y-0036929
X-0029528Y-0019685
Y-0017323
X-0026221Y-0017165
X-0025197Y-0022441
X-0020347Y-0025347
X0012992Y-0019685
X0012027Y-0008858
X0015748Y0012992
X0021457
X0024803Y0017003
X0021457Y0026575
X0015748
X0011634Y0020295
X0009252
X0007153Y0019653
X0004724Y0020079
X0005512Y0023228
X0005906Y0030177
X0004921Y0036417
X0010827Y0036417
X0019653Y0034653
X0022153Y0039653
X0014653Y0044653
X0002402Y0047244
X-0002362
X-0002756Y003641
X-0004921Y0036417
X-0010827Y0036614
X-0020347Y0034653
X-0018504Y0032677
X-0024803Y0037008
X-0025984Y0038976
X-0015347Y0044653
X-0012992Y0025591
X-0009078Y0017184
X-0006102
X-0016535Y0014567
X-0015354Y0012598
X-0019094Y0016929
X-0022638Y0016929
X-0028346Y0020079
X-0036614Y0025591
X-0039803Y0006063
X-0043701Y0004331
Y0001969
X-004685Y-0001575
X-0046055Y0007484
T03
X-0013327Y-0040689
X-0008327
Y-0035689
X-0013327
T04
X-0009449Y0027953
Y0044882
X0009449
Y0027953
T05
X-0034646Y0012795
Y0018701
T07
X0014764Y0036417
T08
X0001811Y-004337
Y-003537
X0021811Y-003937
X0008268Y-0007283
X-0008268
T09
X-0029528Y-0029528
Y0029528
X0029528
M30
